<?xml version="1.0" encoding="utf-8"?>
<!-- Generator: Adobe Illustrator 16.0.0, SVG Export Plug-In . SVG Version: 6.00 Build 0)  -->
<!DOCTYPE svg PUBLIC "-//W3C//DTD SVG 1.1//EN" "http://www.w3.org/Graphics/SVG/1.1/DTD/svg11.dtd">
<svg version="1.1" xmlns="http://www.w3.org/2000/svg" xmlns:xlink="http://www.w3.org/1999/xlink" x="0px" y="0px" width="260px"
	 height="260px" viewBox="0 0 260 260" enable-background="new 0 0 260 260" xml:space="preserve">
<g id="Capa_1">
	<path fill-rule="evenodd" clip-rule="evenodd" fill="#E84725" d="M130,0.062C58.221,0.062,0.031,58.251,0.031,130.03
		C0.031,201.811,58.221,260,130,260s129.969-58.189,129.969-129.97C259.969,58.251,201.779,0.062,130,0.062z M112.828,169.086
		C112.827,169.087,112.827,169.087,112.828,169.086c-1.074,1.075-2.482,1.612-3.89,1.612c-1.408,0-2.815-0.537-3.889-1.611
		l-34.963-34.964c-2.148-2.147-2.148-5.63,0-7.777l34.963-34.963c2.146-2.148,5.631-2.148,7.777,0c2.148,2.147,2.148,5.63,0,7.777
		l-31.074,31.074l31.075,31.074C114.977,163.456,114.977,166.938,112.828,169.086z M190.562,133.77l-34.963,34.964
		c-0.976,0.977-2.256,1.465-3.535,1.465s-2.56-0.488-3.535-1.465c0,0,0,0-0.001-0.001c-1.953-1.952-1.953-5.118,0-7.07
		l31.429-31.428l-31.428-31.428c-1.953-1.952-1.953-5.118,0-7.07c1.951-1.953,5.119-1.953,7.07,0l34.963,34.963
		C192.515,128.651,192.515,131.817,190.562,133.77z"/>
</g>
<g id="calco">
</g>
</svg>
