<?xml version="1.0" encoding="utf-8"?>
<!-- Generator: Adobe Illustrator 15.0.0, SVG Export Plug-In . SVG Version: 6.00 Build 0)  -->
<!DOCTYPE svg PUBLIC "-//W3C//DTD SVG 1.1//EN" "http://www.w3.org/Graphics/SVG/1.1/DTD/svg11.dtd">
<svg version="1.1" id="Capa_1" xmlns="http://www.w3.org/2000/svg" xmlns:xlink="http://www.w3.org/1999/xlink" x="0px" y="0px"
	 width="788px" height="190px" viewBox="-0.608 -1.031 788 190" enable-background="new -0.608 -1.031 788 190"
	 xml:space="preserve">
<g id="Capa_2">
</g>
<g id="Capa_1_1_">
	<g>
		<path fill="#FFFFFF" d="M32.543,160.918c6.829,0,11.771,4.781,11.771,11.383c0,6.566-4.975,11.381-11.869,11.381h-9.234v-22.764
			H32.543z M27.048,180.234h5.593c4.422,0,7.804-3.283,7.804-7.902c0-4.648-3.479-7.965-7.966-7.965h-5.43L27.048,180.234
			L27.048,180.234z"/>
		<path fill="#FFFFFF" d="M52.245,164.367v6.146h11.121v3.445H52.245v6.275h12.812v3.447H48.408v-22.764h16.258v3.447H52.245
			V164.367z"/>
		<path fill="#FFFFFF" d="M75.914,183.681l-9.072-22.764h4.129l7.023,18.502l7.089-18.502h4l-9.202,22.764H75.914z"/>
		<path fill="#FFFFFF" d="M107.42,163.097l-1.593,3.383c-2.472-1.496-4.943-2.113-6.666-2.113c-2.244,0-3.707,0.844-3.707,2.373
			c0,4.977,12.292,2.309,12.259,10.502c0,4.064-3.577,6.568-8.584,6.568c-3.577,0-6.958-1.463-9.3-3.609l1.659-3.314
			c2.341,2.145,5.268,3.314,7.706,3.314c2.667,0,4.26-1.008,4.26-2.764c0-5.072-12.291-2.242-12.291-10.34
			c0-3.902,3.349-6.34,8.292-6.34C102.412,160.758,105.306,161.699,107.42,163.097z"/>
		<path fill="#FFFFFF" d="M130.927,164.332l-2.244,2.797c-1.658-1.787-4.031-2.895-6.341-2.895c-4.552,0-8.129,3.514-8.129,8
			s3.577,8.031,8.129,8.031c2.276,0,4.618-1.041,6.341-2.699l2.276,2.537c-2.309,2.275-5.593,3.738-8.812,3.738
			c-6.666,0-11.836-5.039-11.836-11.574c0-6.473,5.235-11.447,11.966-11.447C125.496,160.822,128.716,162.154,130.927,164.332z"/>
		<path fill="#FFFFFF" d="M156.612,172.301c0,6.502-5.268,11.543-12.063,11.543c-6.795,0-12.063-5.041-12.063-11.543
			c0-6.537,5.268-11.48,12.063-11.48C151.344,160.82,156.612,165.797,156.612,172.301z M136.387,172.301
			c0,4.52,3.739,8.096,8.194,8.096c4.454,0,8.096-3.576,8.096-8.096c0-4.521-3.642-8.031-8.096-8.031
			C140.094,164.269,136.387,167.781,136.387,172.301z"/>
		<path fill="#FFFFFF" d="M174.396,180.201v3.48h-13.689v-22.764h3.837v19.283H174.396L174.396,180.201z"/>
		<path fill="#FFFFFF" d="M181.287,178.543l-2.179,5.139h-4l10.048-22.764h3.935l9.95,22.764h-4.098l-2.178-5.139H181.287z
			 M187.01,165.017l-4.292,10.111h8.584L187.01,165.017z"/>
	</g>
	<g>
		<path fill="#FFFFFF" d="M51.17,116.933c0.041,0.119,0.101,0.221,0.152,0.33h28.707L90.14,92.865
			c-1.132-1.295-2.188-2.51-3.161-3.646c-0.981-1.144-1.962-2.368-2.942-3.681l6.817,5.603l0.938-2.266
			c-0.959-1.104-2.028-2.139-3.219-3.091c-1.227-0.98-2.492-1.962-3.802-2.943c-0.491-0.324-0.938-0.65-1.349-0.98
			c-0.406-0.326-0.859-0.651-1.35-0.981c-1.307-1.142-2.613-2.329-3.925-3.556c-1.306-1.227-2.368-2.491-3.188-3.803
			c2.293,1.312,4.539,2.905,6.746,4.783c2.207,1.881,4.457,3.557,6.744,5.027l3.633,4.844l2.008-4.846
			c-0.816-0.814-1.92-1.877-3.311-3.187c-1.387-1.309-2.736-2.613-4.047-3.925c-1.307-1.308-2.453-2.575-3.434-3.802
			c-0.98-1.228-1.473-2.246-1.473-3.064l2.209,1.226c1.472,1.801,3.026,3.477,4.66,5.028c1.637,1.556,3.188,3.064,4.659,4.537
			c0,0.164,0.042,0.246,0.123,0.246c0.085,0,0.123,0.084,0.123,0.244v-0.244c0.655,0.328,1.146,0.488,1.472,0.488l-0.914,2.286
			l5.817-14.041c-0.591-0.196-1.082-0.042-1.47,0.474l-0.49,0.735l-1.227-1.227c0.164-0.162,0.246-0.571,0.246-1.228
			c-1.308-2.123-3.105-4.086-5.397-5.887l-4.66-5.886l6.623,5.149l6.604,7.313l12.813-30.921L126.77,68.71
			c0.062-0.022,0.123-0.056,0.185-0.097l2.208,4.169h-0.245c0,0.165,0.042,0.288,0.123,0.368c0.084,0.084,0.122,0.207,0.122,0.367
			c0.165,0,0.244,0.084,0.244,0.246l1.718,3.434c0.198,1.088,0.479,2.156,0.827,3.213l11.169,25.227
			c0.271,0.521,0.528,1.023,0.758,1.482c0,0.088,0.013,0.18,0.017,0.268l4.372,9.875h21.313c0.179-0.029,0.363-0.053,0.542-0.086
			h2.453c0.49,0,0.9-0.16,1.226-0.488c0.49,0,0.704-0.23,0.642-0.693l-0.396,0.066L122.005,1.08h-16.14v0.086l0.491,0.491
			l-0.491,2.451c-0.49-0.489-1.062-0.57-1.716-0.244l0.735-1.717c0.088-0.217,0.138-0.418,0.156-0.606L90.17,32.797l-0.002,0.01
			v0.244c-0.217,0.344-0.424,0.709-0.629,1.075l-1.6,3.36c-0.25,0.625-0.488,1.268-0.715,1.94c-0.305,0.457-0.598,0.933-0.884,1.421
			l-2.61,5.484c-0.956,2.48-1.834,4.92-2.637,7.32v0.244l-0.982,1.473l-0.244,0.245c0,0.165-0.08,0.329-0.246,0.491
			c-0.562,0.717-1.097,1.48-1.619,2.27l-25.156,52.879c0.016,0.012,0.025,0.025,0.042,0.037c-0.216,0.434-0.431,0.84-0.647,1.234
			l-1.315,2.766v0.66c0,0.33,0.042,0.533,0.122,0.613C51.133,116.65,51.17,116.773,51.17,116.933 M64.66,114.48l-2.942-3.434
			l4.169,3.188C65.397,114.236,64.991,114.32,64.66,114.48 M72.019,114.726l-4.415-4.416l-1.962-2.451
			c0.819,0.818,1.923,1.924,3.312,3.311c1.391,1.393,2.82,2.574,4.293,3.557H72.019L72.019,114.726z M79.621,114.48
			c-0.16-0.16-0.326-0.283-0.49-0.367c-0.16-0.08-0.325-0.283-0.49-0.613c-0.65-0.816-1.307-1.594-1.962-2.33
			c-0.651-0.734-1.388-1.51-2.207-2.33l-3.679-4.414c1.636,1.311,3.148,2.535,4.537,3.678c1.391,1.146,2.904,2.209,4.537,3.189
			h0.735C79.952,112.603,79.621,113.664,79.621,114.48 M81.584,108.84c-0.16-0.326-0.325-0.529-0.49-0.613
			c-0.161-0.08-0.326-0.203-0.491-0.367c-0.325-0.49-0.692-0.982-1.103-1.473c-0.407-0.49-0.859-1.063-1.351-1.717l-3.678-4.66
			c1.31,1.311,2.616,2.535,3.924,3.68c1.312,1.145,2.782,2.127,4.414,2.943L81.584,108.84z M84.282,103.933
			c-2.943-4.084-6.701-8.174-11.281-12.264l2.207,1.227l5.641,5.15c0.82,0.82,1.514,1.68,2.086,2.576
			c0.574,0.9,1.188,1.76,1.839,2.574L84.282,103.933z M86.98,96.822c0.165,0,0.245,0.084,0.245,0.244v-0.244
			c0,0.164,0.085,0.244,0.246,0.244h0.49l-0.736,1.471l-2.698-3.434L86.98,96.822z M83.791,94.859l3.188,4.416l-4.659-4.416
			l-2.453-3.188c0.82,0.491,1.514,1.024,2.084,1.596C82.527,93.84,83.141,94.369,83.791,94.859 M96.055,76.709l0.246,0.245
			l-0.491,1.962l-0.489-0.49c-0.982-2.286-2.615-4.415-4.906-6.376l-1.473-1.718C91.395,72.294,93.768,74.421,96.055,76.709
			 M87.961,62.238l5.642,6.868c-1.308-1.308-2.655-2.575-4.047-3.802c-1.388-1.228-2.656-2.492-3.802-3.803
			c0.328,0,0.697,0.084,1.104,0.245C87.268,61.913,87.636,62.078,87.961,62.238 M99.98,63.22l-2.453-2.699
			c-0.325-0.651-0.774-1.228-1.349-1.717c-0.571-0.49-1.104-0.98-1.594-1.473c-0.491-0.489-0.981-1.019-1.473-1.595
			c-0.49-0.57-1.061-1.104-1.717-1.594c0.82,0.33,1.596,0.697,2.331,1.104c0.735,0.411,1.513,0.859,2.329,1.351l4.661,5.149
			L99.98,63.22z M106.357,50.955l-2.698-2.452c-0.816-1.144-1.675-2.287-2.576-3.435c-0.896-1.143-1.838-2.287-2.819-3.434
			l-1.719-2.696l-0.244-0.246c1.801,0.981,3.354,2.414,4.66,4.293c1.31,1.881,2.781,3.476,4.414,4.782v0.246
			c-0.16,0.489-0.039,0.941,0.367,1.348c0.412,0.41,0.859,0.453,1.351,0.123L106.357,50.955z M108.564,42.862l-0.981-0.98
			c-1.142-1.798-2.41-3.595-3.801-5.396c-1.388-1.797-2.576-3.515-3.557-5.15c0.491,0.164,1.227,0.574,2.208,1.227l1.472,1.472
			c0.98,1.146,1.961,2.33,2.943,3.558c0.98,1.227,1.881,2.494,2.697,3.803L108.564,42.862z M111.263,38.446l-4.661-4.904
			c-0.326-0.325-0.693-0.734-1.104-1.226c-0.406-0.491-0.858-0.897-1.349-1.229c-1.798-1.797-3.188-3.679-4.17-5.642l11.283,10.302
			l0.735,1.474L111.263,38.446z M109.055,23.486c2.292,1.801,4.579,3.679,6.867,5.641c2.292,1.963,4.5,4.255,6.622,6.867
			c-0.16,0.166-0.245,0.33-0.245,0.491c0.165,0.33,0.33,0.777,0.491,1.349c0.165,0.575,0.409,1.188,0.735,1.841
			c-2.123-2.778-4.454-5.6-6.99-8.463C114.003,28.353,111.508,25.777,109.055,23.486 M113.347,14.164
			c1.556,1.474,3.15,3.273,4.782,5.396c0.82,1.146,1.679,2.453,2.576,3.926c0.899,1.471,1.839,2.863,2.82,4.168
			c-0.326,0.33-0.491,0.656-0.491,0.982c0,0.164,0.165,0.573,0.491,1.227c-2.288-3.434-4.863-6.99-7.726-10.67
			c-2.859-3.679-5.273-6.744-7.236-9.197C110.2,11.307,111.795,12.694,113.347,14.164 M111.263,6.807
			c1.962,2.127,3.556,4.008,4.782,5.642c1.226,1.636,2.004,2.616,2.33,2.942l7.603,8.095c-0.161,0.164-0.245,0.328-0.245,0.49v0.246
			c-2.288-2.945-4.821-5.97-7.604-9.077C115.351,12.041,113.064,9.26,111.263,6.807 M117.148,41.145c0-0.16-0.038-0.326-0.122-0.49
			c-0.08-0.161-0.123-0.406-0.123-0.736c0.491-0.49,0.491-0.979,0-1.473v-0.244c0.821,0.82,1.516,1.557,2.085,2.207
			c0.575,0.656,1.27,1.312,2.085,1.963l2.698,5.396c-0.651-0.325-1.227-0.571-1.717-0.735c-0.491-0.161-1.062-0.245-1.717-0.245
			L117.148,41.145z M122.054,50.466l-0.736-1.229c0.821,0.166,1.68,0.615,2.576,1.35c0.9,0.736,1.759,1.515,2.575,2.33
			c1.801,4.58,4.825,9.484,9.075,14.718c-0.816-0.652-1.634-1.35-2.453-2.085c-0.816-0.735-1.632-1.431-2.452-2.085l-0.736-0.98
			l-3.679-4.416C125.408,55.455,124.016,52.917,122.054,50.466 M126.224,31.825c2.617,2.781,5.028,5.886,7.236,9.32
			c2.206,3.434,4.376,6.868,6.499,10.302c-2.778-3.27-5.435-6.538-7.972-9.812C129.453,38.367,127.534,35.098,126.224,31.825
			 M126.469,59.54l2.698,2.943c-0.491-0.326-1.227-0.652-2.208-0.981C126.959,60.851,126.798,60.195,126.469,59.54 M128.431,64.691
			c1.311,0.819,2.453,1.679,3.434,2.576c0.981,0.898,2.046,1.759,3.189,2.574c0.329,0.329,0.697,0.409,1.103,0.244
			c0.41-0.16,0.613-0.405,0.613-0.733c1.802,2.127,3.641,4.211,5.52,6.254c1.882,2.047,3.721,4.131,5.519,6.254
			c-2.614-2.289-5.067-4.293-7.358-6.01c-2.288-1.717-4.331-3.228-6.132-4.537L128.431,64.691z M155.656,97.189
			c-1.632-1.551-3.269-3.228-4.904-5.027l1.472,1.472c1.472,1.31,2.942,2.616,4.414,3.925c1.472,1.311,2.863,2.617,4.17,3.924
			C159.01,100.174,157.293,98.746,155.656,97.189 M159.335,104.424l-1.227-1.963l0.981,0.736c0,0.33,0.042,0.533,0.123,0.613
			C159.297,103.894,159.335,104.099,159.335,104.424 M151.732,89.463c-2.288-1.798-4.576-3.595-6.867-5.396l-4.905-5.887
			c2.781,2.127,5.641,4.457,8.585,6.99c2.942,2.536,5.725,5.191,8.338,7.972l0.98,1.227c0,0.164,0.043,0.244,0.123,0.244
			c0.085,0,0.123,0.086,0.123,0.246C156.146,93.062,154.024,91.265,151.732,89.463 M139.223,88.728v-0.736
			c-0.326-0.65-0.613-1.308-0.859-1.962c-0.245-0.652-0.527-1.307-0.857-1.963v-0.244l-0.49-0.981
			c-0.326-0.98-0.694-1.963-1.104-2.943c-0.405-0.98-0.857-1.877-1.349-2.697l3.189,3.435c-0.491,0.329-0.736,0.654-0.736,0.98
			c-0.161,0.819,0.49,2.329,1.962,4.538c1.472,2.206,3.354,4.702,5.641,7.479c-1.307-0.98-2.613-1.717-3.924-2.207L139.223,88.728z
			 M151.978,115.461c-0.817,0-1.633,0.084-2.453,0.246c0-0.49-0.161-1.063-0.491-1.717l-0.489-0.492v-0.734l1.471,1.963
			c0.655,0.654,1.227,0.818,1.717,0.49c0.491-0.326,0.491-0.896,0-1.719c-0.815-0.814-1.51-1.674-2.085-2.574
			c-0.571-0.896-1.019-1.92-1.349-3.064l2.698,2.451c0.654,0.82,1.269,1.68,1.84,2.576c0.573,0.9,1.104,1.758,1.594,2.574H151.978z
			 M160.93,114.847c-0.736,0.086-1.51,0.123-2.331,0.123c-0.651-0.814-1.183-1.553-1.594-2.207c-0.406-0.65-0.859-1.389-1.35-2.207
			l-2.452-2.207c-0.651-0.98-1.388-1.879-2.207-2.697c-0.816-0.818-1.879-1.229-3.188-1.229c-0.652-0.65-1.226-1.307-1.717-1.963
			c-0.491-0.65-0.981-1.387-1.473-2.207v-0.49l-1.471-2.697l-1.472-3.188c1.311,0.655,2.782,1.802,4.415,3.435
			c0.164,0.49,0.575,1.227,1.226,2.207l2.698,2.943l0.246,0.244c1.31,1.803,2.617,3.355,3.924,4.662
			c1.312,1.311,2.617,2.207,3.924,2.697c1.472,1.471,3.188,2.943,5.15,4.414C162.443,114.644,161.666,114.767,160.93,114.847
			 M166.448,105.406l0.981,1.227l1.962,3.924l-1.717-0.734c0.33-0.652,0.33-1.143,0-1.473l-2.207-1.961
			C165.958,106.386,166.286,106.06,166.448,105.406 M165.467,111.783c0-0.16,0.042-0.283,0.123-0.367
			c0.084-0.082,0.122-0.203,0.122-0.367c1.637,1.145,3.108,1.801,4.415,1.961h0.49l0.49,0.98c-1.632-0.16-3.434-0.16-5.396,0
			l-0.736-1.227L165.467,111.783z M163.259,107.859l-0.735-1.473l1.471,1.227C163.67,107.613,163.425,107.697,163.259,107.859
			 M159.335,88.728l2.697,4.414c0.33,0.98,0.656,1.883,0.981,2.697l-4.905-5.15l-1.472-1.717c-1.472-1.962-3.35-4.249-5.641-6.866
			c-2.288-2.614-4.66-5.354-7.113-8.217c-2.452-2.859-4.821-5.766-7.113-8.708c-2.287-2.943-4.249-5.803-5.886-8.584l15.698,18.64
			l1.716,1.963c1.636,1.802,3.149,3.354,4.538,4.66c1.391,1.311,2.574,2.373,3.556,3.188v0.735L159.335,88.728z M128.676,44.579
			c2.453,3.272,4.948,6.745,7.48,10.424c2.538,3.68,5.028,7.155,7.481,10.425l-5.886-6.377c-1.799-2.612-3.435-5.151-4.906-7.604
			C131.374,48.994,129.987,46.705,128.676,44.579 M153.449,76.709l-3.434-4.17c0.655,0.656,1.636,1.472,2.944,2.453L153.449,76.709z
			 M151.487,70.332v0.245c-1.798-1.634-3.637-3.637-5.519-6.01c-1.878-2.368-3.759-4.863-5.642-7.48
			c-1.878-2.612-3.76-5.272-5.642-7.971c-1.877-2.698-3.717-5.189-5.518-7.48l0.244-0.244c0-0.326-0.16-0.982-0.489-1.964
			c2.942,4.58,6.377,9.404,10.301,14.471c3.925,5.07,7.278,9.485,10.057,13.246L151.487,70.332z M141.185,46.787
			c-0.161,0.164-0.245,0.655-0.245,1.472l-7.357-11.036c1.31,1.635,2.574,3.229,3.801,4.781
			C138.61,43.559,139.878,45.153,141.185,46.787 M128.431,24.711l0.736-0.734V23.73c0,0.166,0.042,0.246,0.123,0.246
			c0.084,0,0.121,0.084,0.121,0.246l1.228,3.432l-2.453-2.697L128.431,24.711z M131.865,29.863l1.718,3.188v0.735l-0.245,0.245
			l0.245,0.246l1.962,3.188l-4.66-5.149l-0.245-0.246v-0.735l-1.472-2.452c-0.326-0.491-0.529-1.021-0.613-1.595
			c-0.081-0.571-0.203-1.021-0.368-1.349L131.865,29.863z M118.129,2.391v0.246c-0.16,0-0.325,0.084-0.49,0.245
			c-0.491,0.49-0.491,1.021,0,1.595c0.49,0.574,0.98,0.697,1.472,0.367l0.981,2.208l-3.925-3.926l-0.49-0.735H118.129z
			 M111.752,2.391h0.492l0.489-0.244l1.717,2.942l-3.434-2.452L111.752,2.391z M118.619,11.221c2.783,2.942,5.235,5.887,7.358,8.83
			l0.491,2.942c-2.778-3.269-5.558-6.415-8.34-9.442c-2.778-3.023-5.557-6.09-8.338-9.197c-0.162,0-0.246-0.08-0.246-0.246
			C112.818,5.91,115.842,8.278,118.619,11.221 M107.828,5.58c0.33,0.49,0.697,1.023,1.104,1.595c0.41,0.574,0.859,1.27,1.35,2.085
			c-0.49-0.489-0.981-0.938-1.472-1.35c-0.491-0.406-0.981-0.772-1.472-1.104L107.828,5.58z M105.008,11.1
			c0.084-0.082,0.123-0.203,0.123-0.369c0.82,1.311,1.839,2.66,3.064,4.047c1.227,1.392,2.495,2.985,3.803,4.782
			c-1.308-1.308-2.533-2.655-3.68-4.046c-1.142-1.389-2.287-2.736-3.434-4.047C104.885,11.307,104.927,11.184,105.008,11.1
			 M104.395,12.449c1.311,1.311,2.575,2.659,3.801,4.046c1.227,1.393,2.495,2.821,3.803,4.293c0.819,0.819,1.594,1.595,2.329,2.33
			c0.736,0.735,1.515,1.515,2.33,2.329l1.718,1.963c0.82,0.98,1.594,1.962,2.33,2.943c0.735,0.98,1.434,1.963,2.085,2.941
			l-2.944-3.433c-2.287-2.288-4.943-4.618-7.971-6.99c-3.023-2.369-5.435-4.293-7.235-5.765c-0.49-0.49-0.981-0.57-1.472-0.246
			l-0.981-1.225L104.395,12.449z M101.205,17.108l1.717,1.227c0,0.33,0.043,0.533,0.123,0.612c0.084,0.086,0.123,0.207,0.123,0.369
			c-1.143-0.326-1.963-0.406-2.452-0.246c-0.161,0-0.327,0.084-0.491,0.246L99.98,19.07L101.205,17.108z M98.998,20.541l1.472,1.473
			l0.735,1.228l-2.453-1.472l-0.244-0.246L98.998,20.541z M97.037,24.467c0,0.165,0.041,0.244,0.121,0.244
			c0.086,0,0.123,0.084,0.123,0.245l-0.244-0.245V24.467z M94.584,27.9c0.328-0.325,0.654-0.49,0.98-0.49l0.98-1.963l1.718,1.718
			c0.329,0.655,0.655,1.146,0.981,1.473c-0.326-0.162-0.572-0.203-0.736-0.123c-0.161,0.084-0.406,0.123-0.736,0.123
			c-0.816,0.329-1.061,0.899-0.734,1.717l0.489,0.98l-2.942-3.188V27.9z M92.621,33.295l0.735-2.451l9.812,9.074
			c0.82,0.98,1.514,1.962,2.084,2.943c0.576,0.98,1.023,1.882,1.35,2.697v0.246l-2.697-2.453l-2.207-1.961
			c-1.143-1.309-2.246-2.492-3.313-3.559c-1.061-1.062-2.084-1.92-3.064-2.574c-0.492,0-0.898,0.084-1.228,0.244h-0.245
			l-1.227-1.717V33.295z M92.375,35.259l0.981,0.979c-0.161,0-0.245,0.166-0.245,0.49l-0.98-0.735L92.375,35.259z M90.659,41.145
			l1.473,0.734l1.962,2.453c-0.651-0.49-1.265-0.98-1.839-1.472c-0.571-0.49-1.184-0.896-1.84-1.227L90.659,41.145z M95.687,48.871
			c1.718,1.882,3.722,3.478,6.011,4.783c0.164,0,0.244,0.084,0.244,0.244v-0.244l0.245,0.244c1.312,0,1.802-0.405,1.472-1.227
			l-0.244-0.244v-0.244c-0.652-0.817-1.963-2.412-3.926-4.784c-1.962-2.369-3.759-4.617-5.396-6.744l2.452,2.697
			c1.963,2.782,3.844,5.069,5.642,6.868l0.735,0.98v-0.246c0.492,0.33,0.943,0.368,1.35,0.123c0.41-0.245,0.532-0.612,0.368-1.104
			l1.472,1.717l-1.227,2.207l-0.49-0.489l0.49,0.735l-0.735,1.717c-0.327,0-0.491,0.166-0.491,0.49l-2.207-1.961l1.963,1.961v0.246
			l-1.473,1.963c-2.123-2.289-4.208-4.619-6.255-6.99c-2.042-2.369-3.962-4.864-5.763-7.48
			C92.051,45.399,93.971,46.993,95.687,48.871 M88.207,47.032l1.226,1.472c0.819,1.312,1.717,2.452,2.698,3.435
			c-0.981-0.326-1.717-0.49-2.207-0.49h-0.736l-1.963-2.21L88.207,47.032z M85.754,51.937c0.328,0.33,0.654,0.655,0.98,0.979
			c0.329,0.33,0.656,0.656,0.981,0.98l-2.453-1.227L85.754,51.937z M81.828,59.786l2.209-2.942l1.717,2.451
			c-0.652-0.159-1.389-0.159-2.209,0c-0.815,0.33-1.061,0.9-0.735,1.718c0.331,0.98,1.067,2.127,2.208,3.434l-1.473-0.735
			l-2.207-2.697L81.828,59.786z M80.603,62.484c0,0.164,0.085,0.328,0.245,0.49h-0.49C80.358,62.812,80.443,62.648,80.603,62.484
			 M76.924,66.654h0.244c0.822-0.326,1.638-1.228,2.453-2.698c0,0.164,0.043,0.287,0.123,0.366c0.084,0.086,0.123,0.207,0.123,0.369
			c0.33,0.819,0.735,1.472,1.227,1.963h-0.246c-0.65,0-1.141,0.164-1.471,0.49c-0.491,0.654-0.491,1.556,0,2.697l-2.698-2.697
			C76.844,66.982,76.924,66.818,76.924,66.654 M76.188,68.124c0.821,0.981,1.68,1.962,2.576,2.944c0.9,0.98,1.759,2.046,2.574,3.188
			c-1.961-1.473-4.004-2.453-6.131-2.943c0-0.49-0.16-0.735-0.49-0.735L76.188,68.124z M72.754,79.53
			c0.164-0.08,0.41-0.038,0.736,0.123l7.848,8.829c-1.797-1.307-3.471-2.655-5.027-4.046c-1.552-1.389-2.98-2.982-4.292-4.783
			C72.349,79.653,72.594,79.615,72.754,79.53 M66.623,86.274l0.736-0.736l-0.245-0.245v-0.244c0.329-0.325,0.49-0.571,0.49-0.735
			l1.962,2.207l0.491,0.734c-0.491-0.16-1.227-0.244-2.208-0.244s-1.308,0.574-0.981,1.718c2.127,2.291,4.293,4.457,6.5,6.5
			c2.207,2.045,4.293,4.211,6.254,6.498c-1.797-1.633-3.514-3.313-5.149-5.027c-1.634-1.717-3.435-3.065-5.396-4.047
			c-0.492-0.816-1.021-1.51-1.596-2.084c-0.57-0.571-1.184-1.186-1.839-1.84h-0.245C66.052,87.746,66.461,86.93,66.623,86.274
			 M71.774,99.275c-2.779-2.289-4.66-4.006-5.641-5.151c0.164,0,0.287,0.042,0.367,0.122c0.084,0.085,0.207,0.123,0.367,0.123
			L71.774,99.275z M63.925,94.613c0.819,0.822,1.839,1.924,3.065,3.313c1.227,1.393,2.494,2.74,3.803,4.047
			c-0.817-0.65-1.717-1.307-2.698-1.963c-0.981-0.65-1.962-1.227-2.944-1.717c-0.326-0.324-0.65-0.65-0.98-0.98
			c-0.326-0.326-0.651-0.65-0.981-0.98L63.925,94.613z M60.736,100.254c1.472,1.473,3.151,2.943,5.028,4.416
			c1.882,1.471,3.802,3.107,5.766,4.904c0.328,0.33,0.611,0.736,0.857,1.229c0.245,0.488,0.531,0.898,0.859,1.227
			c-1.633-1.309-3.313-2.859-5.029-4.66c-1.717-1.799-3.557-3.189-5.518-4.17c-0.492-0.162-0.897-0.082-1.228,0.244l-1.472-1.961
			L60.736,100.254z M59.019,102.707l-0.245,0.736l4.17,4.904c-0.816-0.49-1.553-0.98-2.208-1.473
			c-0.651-0.488-1.387-0.895-2.206-1.225h0.244c0-0.162,0.084-0.246,0.245-0.246l-0.245-0.246c0.33-0.49,0.165-0.896-0.49-1.227
			L59.019,102.707z M56.321,110.556c0.33,0.49,0.656,0.941,0.982,1.35c0.329,0.41,0.654,0.857,0.98,1.348
			c-0.326-0.324-0.693-0.691-1.104-1.104c-0.406-0.406-0.773-0.773-1.104-1.104C56.077,110.886,56.16,110.72,56.321,110.556
			 M54.237,114.236c0.084-0.326,0.287-0.652,0.613-0.982l2.453,2.453h-0.982c-0.49,0.166-1.142,0.246-1.962,0.246
			c-0.325-0.162-0.489-0.283-0.489-0.369c0-0.08-0.08-0.201-0.246-0.367C53.953,114.89,54.157,114.566,54.237,114.236"/>
		<path fill="#FFFFFF" d="M99.162,139.015c-0.701-0.502-1.353-0.936-1.963-1.314h-5.57c-0.025,0.668,0.102,1.273,0.42,1.805
			c-0.525-0.658-0.986-1.252-1.407-1.805h-2.35l7.437,8.182c-1.633-1.307-3.228-2.576-4.783-3.803
			c-1.552-1.227-3.227-2.33-5.027-3.311l-0.926-1.068h-0.862l0.071,0.088l-0.26-0.088h-8.75c1.912,1.367,3.692,2.863,5.33,4.502
			c1.801,1.801,3.598,3.6,5.396,5.396c0.98,1.311,1.962,2.576,2.943,3.801c0.701,0.877,1.457,1.781,2.242,2.697h2.861
			c-0.107-0.121-0.219-0.244-0.321-0.367c-0.407-0.49-0.774-0.98-1.104-1.471c0.655,0,0.819-0.49,0.489-1.473h0.246l-0.735-0.49
			c-1.472-1.963-3.146-3.717-5.028-5.273c-1.878-1.551-3.557-3.391-5.027-5.518c0.98,0.49,1.961,0.98,2.942,1.471
			c0.981,0.492,1.963,1.064,2.944,1.717c1.801,2.127,3.556,4.213,5.272,6.254c1.37,1.635,2.773,3.365,4.195,5.15h1.438l-6.983-8.215
			c1.962,1.801,3.887,3.557,5.765,5.271c1.124,1.027,2.331,2.004,3.602,2.943h4.117c-0.636-1.564-1.483-3.039-2.568-4.414
			c-1.227-1.553-2.491-3.146-3.803-4.783l-4.414-5.887c2.783,1.801,5.726,4.213,8.83,7.234c2.869,2.795,5.664,5.406,8.392,7.85
			h3.481c-0.595-0.512-1.197-1.037-1.816-1.594c-1.633-1.473-3.35-3.104-5.15-4.906c-1.634-1.961-3.189-3.961-4.66-6.01
			c-0.947-1.313-1.848-2.605-2.728-3.887h-3.397L99.162,139.015z"/>
		<path fill="#FFFFFF" d="M135.707,140.119c1.146,1.881,2.373,3.723,3.68,5.52l-5.887-5.396c-0.16-0.162-0.406-0.246-0.736-0.246
			c-0.325-0.814-0.736-1.51-1.226-2.084c-0.059-0.066-0.116-0.143-0.174-0.209h-1.786l1.96,3.029v0.244l-0.246,0.246
			c0.166,0,0.246,0.084,0.246,0.246c0.165,0,0.245,0.084,0.245,0.244c1.146,1.637,2.373,3.271,3.679,4.904
			c1.311,1.637,2.538,3.354,3.679,5.15c-1.632-1.307-3.146-2.777-4.537-4.414c-1.387-1.633-2.82-3.189-4.292-4.66l-3.565-4.992
			h-22.518c1.903,2.861,3.93,5.67,6.094,8.426c2.086,2.656,4.206,5.314,6.344,7.971h4.011c-1.315-2.023-2.718-4.064-4.223-6.131
			c-2.208-3.023-3.964-6.09-5.273-9.197h0.245l3.434,4.66l-2.453-3.926l-0.49-0.734h0.736c1.472,1.311,3.027,2.904,4.659,4.783
			c1.637,1.881,3.273,3.721,4.906,5.52l0.491,0.734c1.145,1.313,2.168,2.496,3.064,3.557c0.213,0.252,0.425,0.496,0.634,0.734h3.34
			l-2.869-4.781c1.543,1.543,2.927,3.139,4.167,4.781h2.864c-1.444-2.24-2.89-4.326-4.333-6.254
			c-1.472-1.961-2.779-4.084-3.925-6.375c0.981,0.488,1.963,1.225,2.943,2.207c1.472,2.291,2.943,4.498,4.414,6.621
			c0.856,1.236,1.749,2.51,2.66,3.801h7.41c-0.167-0.357-0.335-0.686-0.504-0.979c-0.325-0.572-0.652-1.266-0.981-2.086l2.943,2.943
			l0.078,0.121h3.508l-3.586-3.311l-1.472-1.961l-8.196-11.125h-0.735C134.673,138.486,135.202,139.287,135.707,140.119
			 M108.483,139.138c-0.162-0.082-0.326-0.285-0.49-0.615h0.736c0,0.166,0.164,0.576,0.489,1.229
			C108.893,139.426,108.649,139.222,108.483,139.138 M121.973,145.392c-1.962-2.453-3.925-4.66-5.887-6.623h1.962l3.925,5.396
			V145.392z M122.218,143.676c-0.161,0-0.245,0.084-0.245,0.244l-3.188-5.15c0.819,0,1.881-0.16,3.188-0.49
			c0.164,0.164,0.245,0.33,0.245,0.49c0,0.33,0.084,0.656,0.245,0.98l1.472,3.434C123.284,142.859,122.709,143.023,122.218,143.676
			 M124.793,138.646c-0.245-0.08-0.529-0.203-0.858-0.367l-0.245-0.244h1.227l0.735,1.227
			C125.327,138.933,125.038,138.73,124.793,138.646"/>
		<path fill="#FFFFFF" d="M142.576,142.203c-1.143-1.307-2.207-2.533-3.189-3.678c-0.227-0.266-0.454-0.549-0.681-0.824h-1.063
			c1.743,2.541,3.588,5.146,5.546,7.814c2.078,2.834,4.252,5.699,6.477,8.582h3.947l-4.66-6.988l5.591,6.988h1.295
			c-1.259-1.596-2.527-3.16-3.82-4.658c-2.043-2.369-4.127-4.699-6.254-6.99c-0.491-0.98-0.938-1.92-1.349-2.82
			c-0.302-0.666-0.515-1.303-0.685-1.928h-2.791C141.13,138.898,141.672,140.396,142.576,142.203"/>
		<path fill="#FFFFFF" d="M76.72,141.59c2.372,1.717,4.132,3.643,5.274,5.766l-1.473-0.736l-9.157-8.918H71.34l6.484,7.445
			c-1.799-1.143-3.312-2.244-4.539-3.313c-1.226-1.061-2.654-2.164-4.291-3.311l-0.731-0.822h-6.815l0.434,0.578
			c1.801,2.291,3.599,4.537,5.396,6.744c1.802,2.207,3.435,4.623,4.906,7.234c-0.815-0.488-1.675-1.143-2.575-1.963
			c-0.896-0.814-1.756-1.631-2.576-2.451l-0.244-0.49l-3.68-3.926l-5.499-5.729h-3.37l2.491,2.785
			c-0.651,0.166-0.896,0.736-0.735,1.717l2.207,3.68c-0.324-0.326-0.57-0.49-0.736-0.49c-0.489-0.816-1.019-1.551-1.594-2.207
			c-0.57-0.65-1.104-1.309-1.594-1.963l-1.963-2.207l-1.219-1.313h-1.686l5.357,5.729c-1.632-1.143-3.188-2.33-4.659-3.557
			c-0.888-0.738-1.841-1.463-2.847-2.172h-4.143l8.707,6.219c1.471,1.801,2.984,3.643,4.536,5.52
			c1.31,1.586,2.655,3.133,4.021,4.658h1.642l-8.483-8.707c1.312,0.82,2.66,1.639,4.047,2.453c1.392,0.82,2.74,1.639,4.048,2.453
			c0.655,0,1.146-0.16,1.472-0.49c0.329-0.324,0.245-0.816-0.246-1.473c-0.49-0.65-0.98-1.227-1.471-1.717
			c-0.491-0.49-0.896-1.063-1.227-1.717c1.311,1.313,2.697,2.74,4.17,4.293c1.472,1.555,3.026,2.904,4.66,4.047l0.734,0.855h6.16
			c-0.012-0.041-0.014-0.078-0.027-0.119l-0.244-0.49l0.523,0.609h0.21l-0.979-1.102c-1.307-2.613-2.901-5.066-4.783-7.357
			c-1.877-2.289-3.717-4.576-5.519-6.867l2.453,1.471c2.452,2.453,4.905,4.906,7.358,7.357c2.104,2.104,4.082,4.273,5.945,6.498
			h1.68l-7.135-8.215c1.146,0.82,2.207,1.557,3.188,2.207c0.981,0.656,2.046,1.229,3.188,1.717l3.731,4.291h2.345l-3.378-3.555
			l0.735-0.98c-0.651-1.963-1.674-3.596-3.066-4.904c-1.387-1.309-2.9-2.615-4.537-3.924l-2.597-3.031h-2.661
			C73.56,139.06,75.021,140.359,76.72,141.59"/>
		<path fill="#FFFFFF" d="M190.404,141.222c0.651,1.637,1.552,3.354,2.697,5.148l-2.942-2.697l-3.982-5.973h-3.932l1.537,2.049
			v0.246c0,0.164-0.039,0.328-0.123,0.49c-0.081,0.164-0.039,0.41,0.123,0.736c-0.162,0-0.284-0.039-0.368-0.123
			c-0.081-0.08-0.203-0.123-0.368-0.123c-0.491-0.326-0.896-0.326-1.227,0c-0.816-1.145-1.595-2.207-2.329-3.189
			c-0.022-0.027-0.045-0.057-0.067-0.086h-4.804l3.275,4.992c-1.797-1.797-3.679-3.434-5.641-4.906l-0.044-0.086h-3.723l3.275,4.992
			c-1.141-1.143-2.246-2.207-3.311-3.189c-0.693-0.641-1.363-1.23-2.022-1.803h-7.607c0.175,0.355,0.348,0.711,0.555,1.068
			c0.575,0.979,1.104,1.961,1.595,2.941c-0.816-0.65-1.595-1.264-2.331-1.84c-0.735-0.57-1.51-1.02-2.33-1.348
			c-0.141-0.283-0.305-0.557-0.478-0.824h-1.794l0.064,0.088c-0.115-0.039-0.227-0.057-0.341-0.088h-2.059
			c-0.1,0.031-0.201,0.049-0.298,0.088h-0.245l-0.065-0.088h-1.97l1.299,1.561c0.165,0,0.245,0.084,0.245,0.244
			c1.146,1.803,2.415,3.643,3.801,5.52c1.393,1.881,2.906,3.721,4.538,5.518l0.491,0.982c-2.614-2.779-5.274-5.803-7.972-9.076
			c-1.494-1.809-2.896-3.387-4.216-4.746h-3.011c1.914,1.709,3.953,3.861,6.123,6.463c2.453,2.943,4.824,5.809,7.113,8.586
			l1.03,1.348h7.028c-1.496-1.941-3.072-3.787-4.748-5.518c-2.532-2.613-4.943-5.477-7.235-8.584
			c0.655,0.164,1.636,0.574,2.943,1.227l9.509,12.875h1.162l-6.746-9.934c1.311,1.313,2.536,2.576,3.679,3.803
			c1.146,1.227,2.127,2.25,2.943,3.066l0.735,1.227l0.491-0.736c0.655-0.326,0.899-0.736,0.736-1.227l0.244-0.244l-0.49-0.49
			c-1.143-1.633-2.207-3.189-3.188-4.66c-0.98-1.473-1.962-3.104-2.943-4.906c2.452,2.943,4.905,5.887,7.357,8.83
			c1.417,1.701,2.804,3.463,4.167,5.271h2.7l-5.641-8.461c1.472,1.637,2.905,3.273,4.293,4.904c1.095,1.289,2.111,2.473,3.053,3.557
			h3.303l-4.517-6.254l-1.227-2.697c1.638,1.963,3.354,3.924,5.151,5.887c1.154,1.258,2.307,2.277,3.459,3.064h5.613l-5.148-7.971
			l-0.98-1.963c1.311,0.982,2.617,2.453,3.925,4.416l3.679,5.15l0.245,0.246c0.053,0.053,0.129,0.084,0.201,0.121h11.201
			c-1.237-2.025-2.465-4.031-3.677-6.01c-2.125-3.461-4.291-6.924-6.489-10.389h-3.729
			C189.641,138.779,189.892,139.951,190.404,141.222"/>
		<path fill="#FFFFFF" d="M223.119,137.703h-10.032l4.296,5.727c-1.473-1.307-3.519-2.533-6.132-3.678l-1.536-2.049h-0.808
			c0.31,0.455,0.676,0.969,1.117,1.559l-1.962-0.736c-0.655-0.16-1.146-0.16-1.471,0l-0.57-0.822h-1.884l4.171,6.709
			c0.65,1.637,1.348,3.23,2.084,4.781c0.736,1.559,1.51,3.15,2.33,4.783c-0.33-0.16-0.533-0.326-0.613-0.49
			c-0.084-0.16-0.207-0.324-0.368-0.49c-0.165-0.16-0.245-0.404-0.245-0.734c-0.654-1.143-1.391-1.473-2.206-0.982h-0.246
			l-0.735-1.225c0.325,0,0.693-0.123,1.103-0.369c0.406-0.244,0.448-0.611,0.122-1.104c-0.654-1.309-1.759-3.313-3.311-6.01
			c-1.008-1.746-1.994-3.361-2.965-4.869h-3.572l4.943,7.689c-1.472-1.307-2.863-2.777-4.169-4.414
			c-0.944-1.176-1.977-2.268-3.087-3.275h-3.395c0.948,0.508,1.802,1.229,2.556,2.172c0.981,1.227,2.124,2.494,3.435,3.803
			l4.17,7.357v0.244c0,0.953,0.146,1.893,0.421,2.82h2.994l-0.717-1.104c0.679,0.137,1.421,0.514,2.215,1.104h0.258v0.197
			c0.075,0.059,0.148,0.105,0.224,0.172c0.652,1.635,1.473,3.271,2.453,4.904c0.981,1.637,1.878,3.271,2.698,4.904l-1.472-1.471
			l-3.903-6.006v28.195c0.013,0.076,0.03,0.146,0.044,0.223h2.308c-0.069-0.604-0.087-1.207-0.043-1.811
			c0.081-1.143,0.123-2.369,0.123-3.68l0.736,1.227c0.161,0.82,0.245,1.557,0.245,2.207v1.719c0.096,0.098,0.192,0.213,0.289,0.338
			h4.965l-0.839-1.32c-0.165-0.65-0.533-1.387-1.104-2.207c-0.573-0.814-1.104-1.717-1.594-2.697v-1.961
			c0.981,1.473,2.001,2.861,3.066,4.17c1.061,1.311,2.246,2.291,3.556,2.941v1.074h2.479c0.02-0.85,0.049-1.697,0.098-2.545
			c0.08-1.473,0.122-2.859,0.122-4.17l0.052-0.078v-37.189C223.591,139.9,223.361,138.719,223.119,137.703 M205.611,150.297h-0.491
			l-2.452-3.68c1.472,1.473,3.023,2.537,4.659,3.189l0.736,0.98C207.082,150.461,206.261,150.297,205.611,150.297 M211.006,167.467
			v-0.49c0,0.164,0.039,0.244,0.123,0.244c0.08,0,0.122,0.084,0.122,0.246H211.006z M214.44,170.777
			c-0.491-0.244-0.899-0.447-1.227-0.613l-2.207-3.68l-0.736-3.434l1.472,1.717l3.925,6.869
			C215.337,171.31,214.93,171.023,214.44,170.777 M216.892,174.58h0.491l0.491,0.734L216.892,174.58z M221.062,181.691
			c-0.655-0.324-1.187-0.773-1.594-1.348c-0.41-0.572-0.778-1.186-1.104-1.84h1.473l1.226,1.717L221.062,181.691L221.062,181.691z
			 M221.553,171.39c0,0.818-0.042,1.514-0.123,2.084c-0.084,0.576-0.123,1.27-0.123,2.086c-0.164-0.162-0.245-0.326-0.245-0.49
			c-0.164-0.816-0.409-1.596-0.736-2.33c-0.328-0.736-0.654-1.512-0.98-2.33c-0.164-2.123-0.858-4.17-2.084-6.133
			c-1.228-1.961-2.415-3.924-3.558-5.887l4.905,6.133l2.944,4.66V171.39L221.553,171.39z M221.676,159.127
			c-0.085,0.49-0.123,1.064-0.123,1.717l-9.566-14.227l-2.208-5.148l2.453,1.225c1.633,2.453,3.189,4.906,4.66,7.359
			c1.472,2.451,3.105,4.904,4.906,7.357C221.798,158.064,221.756,158.636,221.676,159.127 M221.798,153.73l-6.868-9.318l3.925,3.434
			c0,0.49,0.245,0.98,0.736,1.471c0.326,0.33,0.65,0.492,0.98,0.492l0.981,1.471c0.161,0.49,0.245,1.064,0.245,1.717L221.798,153.73
			L221.798,153.73z"/>
		<path fill="#FFFFFF" d="M47.656,145.269c-1.634-1.717-3.351-3.473-5.151-5.273c-0.49-0.49-0.938-0.98-1.349-1.471
			c-0.228-0.275-0.438-0.549-0.642-0.824h-5.76l5.299,6.219l2.942,3.436c-1.308-0.982-2.698-2-4.17-3.066
			c-1.472-1.061-2.942-2-4.415-2.818l-3.322-3.768h-1.939l3.3,3.521c-0.161,0.164-0.245,0.488-0.245,0.979
			c-1.637-1.637-3.35-3.133-5.123-4.502h-9.255l1.623,1.805l6.378,6.377c-0.652-0.324-1.266-0.49-1.84-0.49h-1.594l-3.029-3.23
			c0.082,0.209,0.189,0.393,0.331,0.533c-0.981-0.816-1.962-1.717-2.944-2.699c-0.72-0.719-1.35-1.482-1.895-2.293H4.288
			c0.306,0.848,0.698,1.695,1.181,2.539l-2.539-2.539H0.731v28.477c0.027,0.268,0.044,0.52,0.078,0.799
			c-0.023,0-0.053,0.016-0.078,0.023v17.984c0.023,0.078,0.039,0.158,0.066,0.234h2.437c-0.021-0.137-0.05-0.25-0.095-0.34
			c-0.08-0.16-0.123-0.404-0.123-0.734l0.717,1.074h0.898l-1.861-2.791l0.492-0.49v-0.246c0.164-0.326,0.244-0.816,0.244-1.471
			l3.189,3.678H6.204c-0.325,0-0.735,0.246-1.226,0.736c0,0.166-0.039,0.285-0.123,0.365c-0.053,0.057-0.081,0.133-0.1,0.219h6.166
			c-0.554-0.24-1.144-0.514-1.773-0.83l-0.981-1.473l0.735,0.49c0,0.166,0.042,0.246,0.123,0.246c0.084,0,0.123,0.084,0.123,0.246
			l0.244-0.492v0.246c1.311,0,1.802-0.49,1.473-1.471c-0.816-1.309-1.675-2.656-2.576-4.047c-0.896-1.389-1.51-2.902-1.839-4.539
			c0.981,1.311,1.923,2.537,2.819,3.68c0.902,1.145,1.841,2.291,2.82,3.434c0.491,1.313,1.066,2.373,1.717,3.189
			c-0.15,0.531-0.301,0.963-0.453,1.318h2.632c0.103-0.471,0.192-0.992,0.274-1.564c0.191-0.318,0.342-0.654,0.473-0.998v-26.322
			l-1.699,0.342l-1.471-1.719l-0.245-0.244c-1.308-2.287-2.943-4.293-4.905-6.01s-3.516-3.717-4.66-6.01
			c1.801,0.492,3.311,1.393,4.537,2.699c1.227,1.311,2.576,2.537,4.047,3.678l4.668,5.027h1.424l-2.903-3.064
			c1.637-0.326,1.962-0.98,0.981-1.963c-1.307-1.471-2.613-2.98-3.925-4.537c-1.307-1.551-2.698-3.064-4.169-4.537
			c1.311,0.82,3.064,2.127,5.273,3.924c2.207,1.803,4.291,3.189,6.254,4.17l2.453,2.697l0.244,0.492l2.631,2.818h3.828
			c-0.73-1.076-1.57-2.102-2.535-3.064c-1.141-1.141-2.123-2.123-2.942-2.943v-0.244c0.165,0.166,0.411,0.244,0.735,0.244
			l5.785,6.01h0.078l-4.882-5.52c0.82,0.49,1.679,0.943,2.576,1.352c0.899,0.408,1.759,0.775,2.575,1.102l2.523,3.066h2.535
			l-2.115-2.82c0.819-0.326,0.655-0.816-0.49-1.471l-1.473-0.736l-4.414-4.906c0.819,0.656,1.556,1.229,2.207,1.719
			c0.655,0.488,1.227,0.98,1.717,1.471c0.656,0.33,1.188,0.289,1.594-0.121c0.41-0.406,0.453-0.859,0.123-1.35l-0.245-0.246
			c0-0.1-0.067-0.23-0.188-0.393c1.371,1.535,2.741,3.133,4.112,4.809c1.104,1.35,2.269,2.695,3.464,4.045h0.553
			c-0.689-0.832-1.346-1.654-1.932-2.451c-0.896-1.229-1.839-2.41-2.82-3.557l4.66,3.434l0.49,0.492v-0.246
			c0.165,0,0.33,0.084,0.491,0.246c0.164,0.328,0.575,0.818,1.226,1.471c-0.738,0-1.125,0.211-1.195,0.611h5.104
			c-0.277-0.033-0.525-0.072-0.719-0.121l-3.924-4.414l-0.491-0.736c1.146,0.82,2.292,1.594,3.435,2.33
			c1.145,0.736,2.371,1.514,3.678,2.33l0.613,0.611h6.693l-3.137-3.557C50.928,148.744,49.291,146.986,47.656,145.269
			 M3.016,160.353c0-1.473,0.084-2.613,0.246-3.436c0.164,0.33,0.328,0.533,0.49,0.613c0.164,0.084,0.329,0.207,0.49,0.369v2.943
			c0,0.98-0.081,1.881-0.245,2.695l-0.491-0.488C3.506,162.56,3.346,161.664,3.016,160.353 M3.262,156.429l0.49-2.207
			c0,0.164,0.043,0.244,0.122,0.244c0.084,0,0.123,0.084,0.123,0.244v2.699L3.262,156.429z M4.734,171.146
			c-0.327,0.49-0.652,1.063-0.981,1.717v-2.209c0.164,0,0.329-0.08,0.49-0.244L4.734,171.146z M4.979,179.24l-1.227-1.227v-3.682
			c0.164,0.656,0.451,1.352,0.858,2.086c0.409,0.736,0.942,1.68,1.594,2.82H4.979V179.24z M6.327,170.41
			c-0.407,0.164-0.774,0.33-1.104,0.49l-0.735-0.49l0.246-0.246l0.735-1.963l2.207,1.963C7.186,170.164,6.738,170.248,6.327,170.41
			 M6.451,172.371c0.819-0.65,1.801-0.814,2.942-0.49c0.49,0.328,1.065,0.98,1.718,1.963c0,0.654,0.042,1.268,0.122,1.84
			c0.084,0.574,0.123,1.188,0.123,1.84L6.451,172.371z M11.111,172.617l-0.491-0.734c0.165,0,0.288,0.041,0.368,0.121
			c0.084,0.084,0.207,0.123,0.368,0.123C11.195,172.291,11.111,172.455,11.111,172.617 M11.6,169.918H9.149l-3.189-3.68
			c0.491-1.471,0.736-2.943,0.736-4.414c1.311,1.801,2.372,3.355,3.188,4.66c0.82,1.311,1.392,2.293,1.717,2.943l-4.414-4.906
			L11.6,169.918z M6.696,158.146v-0.49l0.736,0.736c-0.162,0-0.285-0.039-0.369-0.123C6.983,158.189,6.86,158.146,6.696,158.146
			 M15.28,174.824c-0.161-0.326-0.284-0.613-0.368-0.857c-0.08-0.244-0.282-0.529-0.612-0.857v-0.246l-0.981-1.227
			c0.489-0.65,0.735-1.389,0.735-2.207l0.49,0.734v-0.246l-0.49-0.979c-0.326-1.309-1.02-2.613-2.084-3.924
			c-1.062-1.309-2-2.533-2.82-3.682c0.328,0.166,0.654,0.246,0.98,0.246h0.49l4.169,5.396L15.28,174.824z M8.658,155.203
			c0.819,0.98,2.127,1.313,3.924,0.98l0.736,0.98c-0.651,0.656-0.491,1.313,0.489,1.963c0.166,0,0.289,0.041,0.369,0.121
			c0.084,0.084,0.207,0.123,0.367,0.123v2.453l-0.736-0.246c-0.65-0.324-1.226-0.324-1.717,0c-0.49,0.33-0.404,0.82,0.246,1.475
			l2.452,1.471v1.961l-3.923-4.904c0.82-0.326,1.064-0.814,0.734-1.471c-0.65-1.307-1.471-2.492-2.451-3.557
			c-0.981-1.063-1.963-2.246-2.944-3.559l-0.489-0.979C6.86,153.16,7.84,154.222,8.658,155.203 M5.715,149.316
			c-0.652-0.49-1.554-0.736-2.699-0.736c-0.651,0-1.062,0.33-1.227,0.982v1.471c-0.16-1.307-0.244-2.533-0.244-3.68v-3.436
			c0.654,0.982,1.311,1.928,1.961,2.822C4.161,147.642,4.897,148.498,5.715,149.316 M1.789,140.242l0.246-1.473l1.717,1.717
			C3.426,140.326,2.77,140.242,1.789,140.242 M27.053,140.486l-0.981-0.98c0.655,0.328,1.188,0.697,1.595,1.104
			c0.409,0.41,0.858,0.779,1.348,1.104L27.053,140.486z"/>
		<rect x="0.578" y="136.211" fill="#FFFFFF" width="223.233" height="2.98"/>
		<rect x="14.469" y="153.818" fill="#FFFFFF" width="196.782" height="2.98"/>
		<rect x="0.299" y="183.879" fill="#FFFFFF" width="17.535" height="2.979"/>
		<rect x="208.535" y="183.73" fill="#FFFFFF" width="16.63" height="2.979"/>
		<rect x="222.187" y="136.211" fill="#FFFFFF" width="2.979" height="49.156"/>
		<rect x="14.857" y="154.097" fill="#FFFFFF" width="2.979" height="31.271"/>
		<rect x="208.535" y="154.097" fill="#FFFFFF" width="2.979" height="31.271"/>
	</g>
	<g>
		<path fill="#FFFFFF" d="M266.386,42.275l-3.57,9.031h-12.811l21.142-49.005h12.812l20.652,49.005h-13.302l-3.5-9.031H266.386z
			 M277.167,14.692l-7.141,18.132h14.142L277.167,14.692z"/>
		<path fill="#FFFFFF" d="M329.457,2.302c12.531,0,19.742,6.159,19.742,17.082c0,11.48-7.211,18.132-19.742,18.132h-8.891v13.792
			h-12.462V2.302H329.457z M320.567,27.713h8.261c5.46,0,8.61-2.729,8.61-7.91c0-5.11-3.15-7.701-8.61-7.701h-8.261V27.713z"/>
		<path fill="#FFFFFF" d="M376.917,37.514h-0.351h-9.451v13.792h-12.461V2.302h21.912c12.951,0,20.372,6.159,20.372,17.082
			c0,7.49-3.15,12.881-8.891,15.751l10.292,16.172h-14.142L376.917,37.514z M376.567,27.713c5.391,0,8.541-2.729,8.541-7.91
			c0-5.11-3.15-7.701-8.541-7.701h-9.451v15.611H376.567z"/>
		<path fill="#FFFFFF" d="M416.745,12.101v9.73h23.383v9.802h-23.383v9.87h26.672v9.802h-39.133V2.302h38.363v9.801L416.745,12.101
			L416.745,12.101z"/>
		<path fill="#FFFFFF" d="M484.647,51.306l-22.541-30.173v30.173h-11.691V2.302h10.99l22.613,30.242V2.302h11.619v49.005H484.647z"
			/>
		<path fill="#FFFFFF" d="M525.456,2.302c15.4,0,26.043,9.94,26.043,24.502c0,14.49-10.781,24.502-26.533,24.502h-20.582V2.302
			H525.456z M516.844,41.365h8.893c7.631,0,13.09-5.881,13.09-14.492c0-8.681-5.74-14.631-13.65-14.631h-8.33v29.123H516.844z"/>
		<path fill="#FFFFFF" d="M569.485,12.101v9.73h23.383v9.802h-23.383v9.87h26.672v9.802h-39.133V2.302h38.363v9.801L569.485,12.101
			L569.485,12.101z"/>
		<path fill="#FFFFFF" d="M266.386,109.275l-3.57,9.031h-12.811l21.142-49.005h12.812l20.652,49.005h-13.302l-3.5-9.031H266.386z
			 M277.167,81.692l-7.141,18.132h14.142L277.167,81.692z"/>
		<path fill="#FFFFFF" d="M344.647,69.302c12.53,0,19.741,6.159,19.741,17.082c0,11.479-7.211,18.132-19.741,18.132h-8.892v13.791
			h-12.462V69.302H344.647z M335.756,94.713h8.262c5.46,0,8.609-2.729,8.609-7.91c0-5.11-3.149-7.701-8.609-7.701h-8.262V94.713z"/>
		<path fill="#FFFFFF" d="M392.106,104.515h-0.352h-9.45v13.791h-12.462V69.302h21.912c12.953,0,20.373,6.159,20.373,17.082
			c0,7.49-3.15,12.88-8.891,15.751l10.291,16.172h-14.143L392.106,104.515z M391.755,94.713c5.392,0,8.541-2.729,8.541-7.91
			c0-5.11-3.148-7.701-8.541-7.701h-9.45v15.611H391.755z"/>
		<path fill="#FFFFFF" d="M469.249,93.733c0,14.282-11.342,25.132-26.533,25.132c-15.121,0-26.463-10.779-26.463-25.132
			c0-14.281,11.342-24.854,26.463-24.854C457.909,68.88,469.249,79.521,469.249,93.733z M428.995,93.803
			c0,8.261,6.369,14.632,13.861,14.632c7.561,0,13.58-6.371,13.58-14.632c0-8.262-6.021-14.492-13.58-14.492
			C435.295,79.311,428.995,85.542,428.995,93.803z"/>
		<path fill="#FFFFFF" d="M517.2,93.384v19.112c-5.252,3.709-13.512,6.369-20.373,6.369c-14.912,0-26.184-10.779-26.184-25.062
			c0-14.211,11.553-24.924,27.023-24.924c7.279,0,14.98,2.801,20.021,7.281l-7,8.472c-3.57-3.291-8.541-5.321-13.094-5.321
			c-8.051,0-14.211,6.301-14.211,14.492c0,8.331,6.23,14.632,14.354,14.632c2.52,0,5.74-0.91,8.68-2.381V93.384H517.2z"/>
		<path fill="#FFFFFF" d="M547.086,104.515h-0.352h-9.449v13.791h-12.463V69.302h21.912c12.953,0,20.373,6.159,20.373,17.082
			c0,7.49-3.15,12.88-8.893,15.751l10.291,16.172h-14.141L547.086,104.515z M546.737,94.713c5.391,0,8.541-2.729,8.541-7.91
			c0-5.11-3.15-7.701-8.541-7.701h-9.451v15.611H546.737z"/>
		<path fill="#FFFFFF" d="M585.584,109.275l-3.57,9.031h-12.811l21.143-49.005h12.811l20.652,49.005h-13.303l-3.5-9.031H585.584z
			 M596.366,81.692l-7.141,18.132h14.143L596.366,81.692z"/>
		<path fill="#FFFFFF" d="M670.147,118.306l-0.07-31.854l-11.76,26.954h-8.121l-11.762-26.954v31.854h-11.133V69.23h13.652
			l13.301,29.193l13.303-29.193h13.58v49.076H670.147z"/>
		<path fill="#FFFFFF" d="M701.083,109.275l-3.57,9.031h-12.811l21.143-49.005h12.813l20.652,49.005h-13.303l-3.5-9.031H701.083z
			 M711.864,81.692l-7.141,18.132h14.143L711.864,81.692z"/>
		<path fill="#FFFFFF" d="M765.065,104.515h-0.352h-9.451v13.791h-12.461V69.302h21.912c12.951,0,20.371,6.159,20.371,17.082
			c0,7.49-3.148,12.88-8.891,15.751l10.291,16.172h-14.143L765.065,104.515z M764.713,94.713c5.391,0,8.541-2.729,8.541-7.91
			c0-5.11-3.15-7.701-8.541-7.701h-9.451v15.611H764.713z"/>
		<path fill="#FFFFFF" d="M267.717,146.101v9.73h23.382v9.803h-23.382v9.869h26.672v9.803h-39.134v-49.006h38.364v9.801H267.717z"/>
		<path fill="#FFFFFF" d="M335.619,185.306l-22.542-30.174v30.174h-11.691v-49.006h10.991l22.612,30.242v-30.242h11.621v49.006
			H335.619z"/>
		<path fill="#FFFFFF" d="M384.615,185.306l-19.042-49.006h13.302l12.531,36.055l12.532-36.055h12.811l-19.252,49.006H384.615z"/>
		<path fill="#FFFFFF" d="M427.874,176.275l-3.57,9.031h-12.811l21.143-49.006h12.813l20.652,49.006h-13.303l-3.5-9.031H427.874z
			 M438.657,148.691l-7.141,18.133h14.141L438.657,148.691z"/>
		<path fill="#FFFFFF" d="M502.846,174.873v10.434h-33.254v-49.006h12.463v38.572H502.846z"/>
		<path fill="#FFFFFF" d="M520.206,146.101v9.73h23.381v9.803h-23.381v9.869h26.672v9.803h-39.135v-49.006h38.365v9.801H520.206z"/>
		<path fill="#FFFFFF" d="M588.108,185.306l-22.543-30.174v30.174h-11.691v-49.006h10.992l22.611,30.242v-30.242h11.621v49.006
			H588.108z"/>
		<path fill="#FFFFFF" d="M650.547,144.142l-7.211,8.541c-3.221-3.922-7.98-6.371-12.32-6.371c-7.771,0-13.652,6.16-13.652,14.211
			c0,8.189,5.881,14.422,13.652,14.422c4.129,0,8.891-2.24,12.32-5.74l7.279,7.699c-5.25,5.391-13.021,8.961-20.23,8.961
			c-14.771,0-25.764-10.85-25.764-25.201c0-14.143,11.271-24.783,26.184-24.783C638.084,135.879,645.647,139.101,650.547,144.142z"
			/>
		<path fill="#FFFFFF" d="M655.233,185.306v-49.006h12.461v49.006H655.233z"/>
		<path fill="#FFFFFF" d="M687.573,176.275l-3.57,9.031h-12.811l21.143-49.006h12.813l20.65,49.006h-13.301l-3.5-9.031H687.573z
			 M698.354,148.691l-7.141,18.133h14.143L698.354,148.691z"/>
	</g>
</g>
</svg>
