<?xml version="1.0" encoding="utf-8"?>
<!-- Generator: Adobe Illustrator 16.0.0, SVG Export Plug-In . SVG Version: 6.00 Build 0)  -->
<!DOCTYPE svg PUBLIC "-//W3C//DTD SVG 1.1//EN" "http://www.w3.org/Graphics/SVG/1.1/DTD/svg11.dtd">
<svg version="1.1" xmlns="http://www.w3.org/2000/svg" xmlns:xlink="http://www.w3.org/1999/xlink" x="0px" y="0px" width="260px"
	 height="260px" viewBox="0 0 260 260" enable-background="new 0 0 260 260" xml:space="preserve">
<g id="Capa_1">
	<g>
		
			<rect x="112.692" y="107.393" transform="matrix(0.7423 0.67 -0.67 0.7423 104.8582 -49.7388)" fill-rule="evenodd" clip-rule="evenodd" fill="#E84725" width="8.81" height="8.136"/>
		<polygon fill-rule="evenodd" clip-rule="evenodd" fill="#E84725" points="104.829,118.479 111.339,118.479 107.751,115.24 		"/>
		<polygon fill-rule="evenodd" clip-rule="evenodd" fill="#E84725" points="128.072,118.479 128.073,118.479 132.712,118.479 
			128.072,113.338 123.433,118.479 128.071,118.479 		"/>
		<polygon fill-rule="evenodd" clip-rule="evenodd" fill="#E84725" points="109.852,105.453 104.369,105.453 107.39,108.18 		"/>
		<polygon fill-rule="evenodd" clip-rule="evenodd" fill="#E84725" points="104.04,111.891 96.908,105.453 95.938,105.453 
			84.181,118.479 98.095,118.479 		"/>
		<polygon fill-rule="evenodd" clip-rule="evenodd" fill="#E84725" points="144.806,118.479 151.315,118.479 148.394,115.24 		"/>
		<polygon fill-rule="evenodd" clip-rule="evenodd" fill="#E84725" points="132.172,105.453 128.073,105.453 128.072,105.453 
			128.071,105.453 123.973,105.453 128.072,109.154 		"/>
		
			<rect x="134.98" y="107.056" transform="matrix(0.6701 0.7423 -0.7423 0.6701 128.6022 -66.4398)" fill-rule="evenodd" clip-rule="evenodd" fill="#E84725" width="8.136" height="8.81"/>
		<polygon fill-rule="evenodd" clip-rule="evenodd" fill="#E84725" points="146.468,148.396 171.384,123.479 160.394,123.479 		"/>
		<polygon fill-rule="evenodd" clip-rule="evenodd" fill="#E84725" points="159.236,105.453 152.104,111.891 158.05,118.479 
			171.964,118.479 160.206,105.453 		"/>
		<polygon fill-rule="evenodd" clip-rule="evenodd" fill="#E84725" points="151.775,105.453 146.293,105.453 148.755,108.18 		"/>
		<path fill-rule="evenodd" clip-rule="evenodd" fill="#E84725" d="M130,0.03C58.221,0.03,0.031,58.22,0.031,129.999
			c0,71.78,58.189,129.97,129.969,129.97s129.969-58.189,129.969-129.97C259.969,58.22,201.779,0.03,130,0.03z M184.49,124.514
			l-52.881,52.882c-0.976,0.977-2.256,1.465-3.535,1.465c-0.001,0-0.001,0-0.002,0s-0.001,0-0.002,0
			c-1.279,0-2.56-0.488-3.535-1.465l-52.881-52.882c-1.883-1.882-1.96-4.909-0.177-6.886l18.526-20.525
			c0.948-1.05,2.297-1.649,3.712-1.649h34.355h0.001h0.001h34.355c1.415,0,2.764,0.6,3.712,1.649l18.526,20.525
			C186.45,119.604,186.373,122.632,184.49,124.514z"/>
		<polygon fill-rule="evenodd" clip-rule="evenodd" fill="#E84725" points="128.073,123.479 128.072,123.479 128.071,123.479 
			120.66,123.479 128.072,164.361 135.484,123.479 		"/>
		<polygon fill-rule="evenodd" clip-rule="evenodd" fill="#E84725" points="140.565,123.479 133.797,160.816 154.665,123.479 		"/>
		<polygon fill-rule="evenodd" clip-rule="evenodd" fill="#E84725" points="101.479,123.479 122.348,160.816 115.579,123.479 		"/>
		<polygon fill-rule="evenodd" clip-rule="evenodd" fill="#E84725" points="84.761,123.479 109.677,148.396 95.751,123.479 		"/>
	</g>
</g>
<g id="calco">
</g>
</svg>
