<?xml version="1.0" encoding="utf-8"?>
<!-- Generator: Adobe Illustrator 16.0.0, SVG Export Plug-In . SVG Version: 6.00 Build 0)  -->
<!DOCTYPE svg PUBLIC "-//W3C//DTD SVG 1.1//EN" "http://www.w3.org/Graphics/SVG/1.1/DTD/svg11.dtd">
<svg version="1.1" xmlns="http://www.w3.org/2000/svg" xmlns:xlink="http://www.w3.org/1999/xlink" x="0px" y="0px"
	 width="795.26px" height="187.937px" viewBox="0 0 795.26 187.937" enable-background="new 0 0 795.26 187.937"
	 xml:space="preserve">
<g id="Capa_2">
</g>
<g id="Capa_1">
	<g>
		<path fill="#FFFFFF" d="M33.065,161.381c6.828,0,11.771,4.78,11.771,11.381c0,6.568-4.976,11.381-11.868,11.381h-9.234v-22.762
			H33.065z M27.569,180.697h5.594c4.422,0,7.803-3.284,7.803-7.902c0-4.649-3.479-7.966-7.966-7.966h-5.431V180.697z"/>
		<path fill="#FFFFFF" d="M52.767,164.829v6.146h11.121v3.446H52.767v6.276h12.813v3.446H48.931v-22.762h16.258v3.447H52.767z"/>
		<path fill="#FFFFFF" d="M76.437,184.143l-9.072-22.762h4.129l7.023,18.502l7.09-18.502h3.999l-9.202,22.762H76.437z"/>
		<path fill="#FFFFFF" d="M107.942,163.56l-1.594,3.382c-2.471-1.496-4.942-2.113-6.666-2.113c-2.243,0-3.707,0.845-3.707,2.373
			c0,4.976,12.292,2.309,12.26,10.503c0,4.064-3.577,6.568-8.585,6.568c-3.577,0-6.958-1.463-9.3-3.609l1.658-3.316
			c2.342,2.146,5.268,3.316,7.707,3.316c2.666,0,4.26-1.008,4.26-2.764c0-5.072-12.291-2.243-12.291-10.34
			c0-3.902,3.349-6.341,8.291-6.341C102.935,161.219,105.829,162.162,107.942,163.56z"/>
		<path fill="#FFFFFF" d="M131.449,164.795l-2.244,2.797c-1.658-1.788-4.031-2.895-6.341-2.895c-4.552,0-8.129,3.513-8.129,8
			c0,4.486,3.577,8.031,8.129,8.031c2.276,0,4.618-1.041,6.341-2.699l2.276,2.536c-2.309,2.276-5.593,3.739-8.812,3.739
			c-6.666,0-11.837-5.04-11.837-11.575c0-6.471,5.235-11.446,11.967-11.446C126.019,161.284,129.238,162.617,131.449,164.795z"/>
		<path fill="#FFFFFF" d="M157.134,172.762c0,6.503-5.268,11.543-12.063,11.543s-12.063-5.04-12.063-11.543
			c0-6.536,5.268-11.479,12.063-11.479S157.134,166.259,157.134,172.762z M136.909,172.762c0,4.52,3.739,8.097,8.194,8.097
			c4.454,0,8.096-3.577,8.096-8.097s-3.642-8.031-8.096-8.031C140.616,164.731,136.909,168.243,136.909,172.762z"/>
		<path fill="#FFFFFF" d="M174.918,180.664v3.479h-13.689v-22.762h3.837v19.282H174.918z"/>
		<path fill="#FFFFFF" d="M181.81,179.005l-2.179,5.138h-4l10.048-22.762h3.935l9.95,22.762h-4.098l-2.178-5.138H181.81z
			 M187.532,165.479l-4.292,10.112h8.584L187.532,165.479z"/>
	</g>
	<g>
		<path fill="#FFFFFF" d="M51.692,117.395c0.041,0.12,0.101,0.221,0.152,0.331h28.707l10.111-24.399
			c-1.132-1.295-2.188-2.51-3.161-3.646c-0.981-1.143-1.962-2.368-2.942-3.68l6.817,5.602l0.938-2.265
			c-0.959-1.104-2.028-2.139-3.219-3.091c-1.227-0.981-2.492-1.962-3.802-2.944c-0.491-0.324-0.938-0.65-1.349-0.98
			c-0.406-0.326-0.859-0.651-1.35-0.981c-1.307-1.142-2.613-2.33-3.925-3.556c-1.306-1.227-2.368-2.491-3.188-3.803
			c2.293,1.312,4.539,2.905,6.746,4.783c2.207,1.881,4.457,3.557,6.744,5.028l3.633,4.843l2.008-4.845
			c-0.816-0.815-1.92-1.877-3.311-3.187c-1.387-1.308-2.736-2.613-4.047-3.925c-1.307-1.307-2.453-2.575-3.434-3.801
			c-0.98-1.228-1.473-2.246-1.473-3.065l2.209,1.226c1.472,1.801,3.026,3.476,4.66,5.028c1.637,1.556,3.188,3.065,4.659,4.537
			c0,0.164,0.042,0.246,0.123,0.246c0.085,0,0.123,0.084,0.123,0.244v-0.244c0.655,0.328,1.146,0.489,1.472,0.489l-0.914,2.286
			l5.817-14.041c-0.591-0.197-1.082-0.042-1.47,0.473l-0.49,0.736l-1.227-1.227c0.164-0.162,0.246-0.571,0.246-1.227
			c-1.308-2.123-3.105-4.086-5.397-5.887l-4.66-5.886l6.623,5.15l6.604,7.313l12.813-30.921l13.754,31.063
			c0.062-0.023,0.123-0.056,0.185-0.097l2.208,4.169h-0.245c0,0.165,0.042,0.288,0.123,0.368c0.084,0.084,0.122,0.207,0.122,0.367
			c0.165,0,0.244,0.084,0.244,0.246l1.718,3.434c0.198,1.088,0.479,2.156,0.827,3.213l11.169,25.227
			c0.271,0.521,0.528,1.023,0.758,1.483c0,0.087,0.013,0.178,0.017,0.267l4.372,9.875h21.313c0.179-0.03,0.363-0.052,0.542-0.086
			h2.453c0.49,0,0.9-0.16,1.226-0.489c0.49,0,0.704-0.23,0.642-0.693l-0.396,0.066L122.527,1.542h-16.14v0.086l0.491,0.491
			l-0.491,2.451c-0.49-0.489-1.062-0.57-1.716-0.244l0.735-1.717c0.088-0.217,0.138-0.418,0.156-0.606L90.692,33.259l-0.002,0.009
			v0.244c-0.217,0.344-0.424,0.709-0.629,1.076l-1.6,3.36c-0.25,0.625-0.488,1.268-0.715,1.94c-0.305,0.457-0.598,0.933-0.884,1.421
			l-2.61,5.485c-0.956,2.48-1.834,4.92-2.637,7.32v0.244l-0.982,1.473l-0.244,0.245c0,0.165-0.08,0.329-0.246,0.491
			c-0.562,0.717-1.097,1.481-1.619,2.27l-25.156,52.879c0.016,0.011,0.025,0.026,0.042,0.037c-0.216,0.433-0.431,0.84-0.647,1.235
			l-1.315,2.766v0.659c0,0.33,0.042,0.533,0.122,0.613C51.655,117.113,51.692,117.235,51.692,117.395 M65.183,114.943l-2.942-3.434
			l4.169,3.188C65.919,114.698,65.513,114.783,65.183,114.943 M72.541,115.188l-4.415-4.415l-1.962-2.452
			c0.819,0.819,1.923,1.924,3.312,3.311c1.391,1.392,2.82,2.575,4.293,3.557H72.541z M80.144,114.943
			c-0.16-0.16-0.326-0.283-0.49-0.368c-0.16-0.08-0.325-0.283-0.49-0.613c-0.65-0.816-1.307-1.594-1.962-2.33
			c-0.651-0.735-1.388-1.51-2.207-2.33l-3.679-4.415c1.636,1.312,3.148,2.537,4.537,3.679c1.391,1.146,2.904,2.208,4.537,3.189
			h0.735C80.474,113.065,80.144,114.126,80.144,114.943 M82.106,109.301c-0.16-0.326-0.325-0.529-0.49-0.613
			c-0.161-0.079-0.326-0.202-0.491-0.367c-0.325-0.49-0.692-0.981-1.103-1.472c-0.407-0.49-0.859-1.062-1.351-1.717l-3.678-4.661
			c1.31,1.312,2.616,2.537,3.924,3.681c1.312,1.145,2.782,2.126,4.414,2.942L82.106,109.301z M84.804,104.396
			c-2.943-4.085-6.701-8.174-11.281-12.264l2.207,1.226l5.641,5.151c0.82,0.821,1.514,1.679,2.086,2.576
			c0.574,0.9,1.188,1.759,1.839,2.575L84.804,104.396z M87.502,97.284c0.165,0,0.245,0.084,0.245,0.244v-0.244
			c0,0.164,0.085,0.244,0.246,0.244h0.49L87.747,99l-2.698-3.434L87.502,97.284z M84.313,95.321l3.188,4.416l-4.659-4.416
			l-2.453-3.188c0.82,0.491,1.514,1.024,2.084,1.595C83.049,94.301,83.663,94.831,84.313,95.321 M96.577,77.171l0.246,0.245
			l-0.491,1.962l-0.489-0.491c-0.982-2.286-2.615-4.415-4.906-6.376l-1.473-1.717C91.917,72.756,94.29,74.883,96.577,77.171
			 M88.483,62.7l5.642,6.868c-1.308-1.308-2.655-2.575-4.047-3.802c-1.388-1.227-2.656-2.492-3.802-3.802
			c0.328,0,0.697,0.084,1.104,0.245C87.79,62.375,88.158,62.54,88.483,62.7 M100.502,63.682l-2.453-2.699
			c-0.325-0.651-0.774-1.227-1.349-1.717c-0.571-0.49-1.104-0.98-1.594-1.472c-0.491-0.49-0.981-1.019-1.473-1.595
			c-0.49-0.57-1.061-1.104-1.717-1.594c0.82,0.33,1.596,0.697,2.331,1.104c0.735,0.411,1.513,0.859,2.329,1.35l4.661,5.15
			L100.502,63.682z M106.879,51.417l-2.698-2.452c-0.816-1.144-1.675-2.288-2.576-3.435c-0.896-1.143-1.838-2.287-2.819-3.434
			L97.067,39.4l-0.244-0.246c1.801,0.981,3.354,2.414,4.66,4.293c1.31,1.881,2.781,3.476,4.414,4.782v0.246
			c-0.16,0.49-0.039,0.942,0.367,1.348c0.412,0.41,0.859,0.453,1.351,0.123L106.879,51.417z M109.086,43.324l-0.981-0.981
			c-1.142-1.797-2.41-3.594-3.801-5.396c-1.388-1.797-2.576-3.515-3.557-5.15c0.491,0.164,1.227,0.574,2.208,1.226l1.472,1.472
			c0.98,1.146,1.961,2.33,2.943,3.557c0.98,1.227,1.881,2.495,2.697,3.803L109.086,43.324z M111.785,38.908l-4.661-4.904
			c-0.326-0.326-0.693-0.735-1.104-1.226c-0.406-0.491-0.858-0.897-1.349-1.228c-1.798-1.797-3.188-3.679-4.17-5.642l11.283,10.302
			l0.735,1.473L111.785,38.908z M109.577,23.948c2.292,1.801,4.579,3.679,6.867,5.641c2.292,1.962,4.5,4.254,6.622,6.867
			c-0.16,0.166-0.245,0.33-0.245,0.491c0.165,0.33,0.33,0.777,0.491,1.349c0.165,0.575,0.409,1.188,0.735,1.84
			c-2.123-2.778-4.454-5.599-6.99-8.462C114.525,28.815,112.03,26.239,109.577,23.948 M113.869,14.626
			c1.556,1.473,3.15,3.273,4.782,5.396c0.82,1.146,1.679,2.453,2.576,3.926c0.899,1.471,1.839,2.863,2.82,4.168
			c-0.326,0.33-0.491,0.656-0.491,0.982c0,0.164,0.165,0.574,0.491,1.227c-2.288-3.434-4.863-6.99-7.726-10.67
			c-2.859-3.679-5.273-6.744-7.236-9.197C110.722,11.769,112.317,13.156,113.869,14.626 M111.785,7.269
			c1.962,2.127,3.556,4.008,4.782,5.642c1.226,1.636,2.004,2.616,2.33,2.942l7.603,8.095c-0.161,0.164-0.245,0.328-0.245,0.49v0.246
			c-2.288-2.945-4.821-5.969-7.604-9.077C115.873,12.503,113.586,9.721,111.785,7.269 M117.67,41.607c0-0.16-0.038-0.326-0.122-0.49
			c-0.08-0.161-0.123-0.406-0.123-0.736c0.491-0.491,0.491-0.98,0-1.473v-0.244c0.821,0.82,1.516,1.556,2.085,2.207
			c0.575,0.656,1.27,1.311,2.085,1.963l2.698,5.396c-0.651-0.325-1.227-0.571-1.717-0.735c-0.491-0.161-1.062-0.245-1.717-0.245
			L117.67,41.607z M122.576,50.927L121.84,49.7c0.821,0.166,1.68,0.615,2.576,1.35c0.9,0.736,1.759,1.514,2.575,2.33
			c1.801,4.58,4.825,9.484,9.075,14.717c-0.816-0.652-1.634-1.349-2.453-2.085c-0.816-0.735-1.632-1.43-2.452-2.085l-0.736-0.98
			l-3.679-4.416C125.93,55.917,124.538,53.379,122.576,50.927 M126.746,32.287c2.617,2.781,5.028,5.886,7.236,9.32
			c2.206,3.434,4.376,6.868,6.499,10.302c-2.778-3.27-5.435-6.538-7.972-9.812C129.976,38.829,128.056,35.56,126.746,32.287
			 M126.991,60.002l2.698,2.943c-0.491-0.326-1.227-0.652-2.208-0.981C127.481,61.313,127.32,60.657,126.991,60.002 M128.953,65.153
			c1.311,0.819,2.453,1.679,3.434,2.576c0.981,0.899,2.046,1.759,3.189,2.574c0.329,0.33,0.697,0.41,1.103,0.245
			c0.41-0.161,0.613-0.406,0.613-0.734c1.802,2.127,3.641,4.211,5.52,6.254c1.882,2.047,3.721,4.131,5.519,6.254
			c-2.614-2.289-5.067-4.293-7.358-6.01c-2.288-1.717-4.331-3.227-6.132-4.537L128.953,65.153z M156.178,97.651
			c-1.632-1.551-3.269-3.227-4.904-5.027l1.472,1.471c1.472,1.311,2.942,2.618,4.414,3.925c1.472,1.312,2.863,2.617,4.17,3.925
			C159.532,100.636,157.815,99.208,156.178,97.651 M159.857,104.886l-1.227-1.962l0.981,0.736c0,0.329,0.042,0.533,0.123,0.612
			C159.819,104.357,159.857,104.561,159.857,104.886 M152.254,89.925c-2.288-1.798-4.576-3.595-6.867-5.396l-4.905-5.887
			c2.781,2.127,5.641,4.457,8.585,6.991c2.942,2.536,5.725,5.191,8.338,7.971l0.98,1.227c0,0.165,0.043,0.244,0.123,0.244
			c0.085,0,0.123,0.086,0.123,0.246C156.668,93.524,154.546,91.727,152.254,89.925 M139.745,89.19v-0.736
			c-0.326-0.651-0.613-1.308-0.859-1.962c-0.245-0.652-0.527-1.307-0.857-1.963v-0.244l-0.49-0.982
			c-0.326-0.98-0.694-1.962-1.104-2.943c-0.405-0.98-0.857-1.877-1.349-2.697l3.189,3.434c-0.491,0.329-0.736,0.655-0.736,0.981
			c-0.161,0.819,0.49,2.329,1.962,4.538c1.472,2.206,3.354,4.702,5.641,7.479c-1.307-0.98-2.613-1.716-3.924-2.207L139.745,89.19z
			 M152.5,115.923c-0.817,0-1.633,0.085-2.453,0.246c0-0.491-0.161-1.063-0.491-1.717l-0.489-0.491v-0.736l1.471,1.963
			c0.655,0.655,1.227,0.82,1.717,0.49c0.491-0.325,0.491-0.896,0-1.717c-0.815-0.816-1.51-1.674-2.085-2.575
			c-0.571-0.896-1.019-1.92-1.349-3.065l2.698,2.452c0.654,0.82,1.269,1.679,1.84,2.575c0.573,0.901,1.104,1.759,1.594,2.575H152.5z
			 M161.452,115.31c-0.736,0.085-1.51,0.123-2.331,0.123c-0.651-0.815-1.183-1.552-1.594-2.208c-0.406-0.65-0.859-1.387-1.35-2.207
			l-2.452-2.207c-0.651-0.98-1.388-1.878-2.207-2.697c-0.816-0.817-1.879-1.228-3.188-1.228c-0.652-0.65-1.226-1.307-1.717-1.962
			c-0.491-0.652-0.981-1.387-1.473-2.207v-0.491l-1.471-2.698l-1.472-3.188c1.311,0.656,2.782,1.802,4.415,3.434
			c0.164,0.491,0.575,1.228,1.226,2.208l2.698,2.943l0.246,0.245c1.31,1.801,2.617,3.354,3.924,4.661
			c1.312,1.31,2.617,2.207,3.924,2.698c1.472,1.471,3.188,2.942,5.15,4.414C162.965,115.107,162.188,115.23,161.452,115.31
			 M166.97,105.868l0.981,1.227l1.962,3.924l-1.717-0.735c0.33-0.651,0.33-1.143,0-1.472l-2.207-1.962
			C166.48,106.849,166.809,106.523,166.97,105.868 M165.989,112.245c0-0.16,0.042-0.283,0.123-0.367
			c0.084-0.081,0.122-0.203,0.122-0.368c1.637,1.146,3.108,1.801,4.415,1.962h0.49l0.49,0.981c-1.632-0.161-3.434-0.161-5.396,0
			l-0.736-1.228L165.989,112.245z M163.781,108.321l-0.735-1.472l1.471,1.227C164.192,108.076,163.947,108.16,163.781,108.321
			 M159.857,89.19l2.697,4.414c0.33,0.981,0.656,1.883,0.981,2.698l-4.905-5.151l-1.472-1.717c-1.472-1.962-3.35-4.249-5.641-6.866
			c-2.288-2.614-4.66-5.354-7.113-8.217c-2.452-2.859-4.821-5.765-7.113-8.708c-2.287-2.943-4.249-5.802-5.886-8.584l15.698,18.64
			l1.716,1.963c1.636,1.802,3.149,3.353,4.538,4.66c1.391,1.311,2.574,2.373,3.556,3.188v0.736L159.857,89.19z M129.198,45.041
			c2.453,3.272,4.948,6.745,7.48,10.424c2.538,3.679,5.028,7.155,7.481,10.424l-5.886-6.377c-1.799-2.612-3.435-5.151-4.906-7.603
			C131.896,49.456,130.509,47.167,129.198,45.041 M153.971,77.171l-3.434-4.17c0.655,0.656,1.636,1.471,2.944,2.453L153.971,77.171z
			 M152.009,70.794v0.245c-1.798-1.634-3.637-3.637-5.519-6.01c-1.878-2.368-3.759-4.863-5.642-7.48
			c-1.878-2.613-3.76-5.273-5.642-7.971c-1.877-2.698-3.717-5.19-5.518-7.481l0.244-0.244c0-0.326-0.16-0.982-0.489-1.964
			c2.942,4.58,6.377,9.405,10.301,14.471c3.925,5.07,7.278,9.485,10.057,13.246L152.009,70.794z M141.707,47.249
			c-0.161,0.164-0.245,0.655-0.245,1.471l-7.357-11.036c1.31,1.635,2.574,3.23,3.801,4.782
			C139.132,44.021,140.4,45.615,141.707,47.249 M128.953,25.173l0.736-0.735v-0.246c0,0.166,0.042,0.246,0.123,0.246
			c0.084,0,0.121,0.084,0.121,0.246l1.228,3.432l-2.453-2.697L128.953,25.173z M132.387,30.325l1.718,3.188v0.736l-0.245,0.245
			l0.245,0.246l1.962,3.188l-4.66-5.149l-0.245-0.246v-0.735l-1.472-2.453c-0.326-0.491-0.529-1.021-0.613-1.594
			c-0.081-0.572-0.203-1.021-0.368-1.349L132.387,30.325z M118.651,2.853v0.246c-0.16,0-0.325,0.084-0.49,0.245
			c-0.491,0.491-0.491,1.022,0,1.595c0.49,0.574,0.98,0.697,1.472,0.367l0.981,2.208l-3.925-3.925l-0.49-0.736H118.651z
			 M112.274,2.853h0.492l0.489-0.244l1.717,2.942l-3.434-2.452L112.274,2.853z M119.142,11.683c2.783,2.943,5.235,5.887,7.358,8.83
			l0.491,2.943c-2.778-3.269-5.558-6.415-8.34-9.443c-2.778-3.023-5.557-6.089-8.338-9.197c-0.162,0-0.246-0.08-0.246-0.246
			C113.34,6.372,116.364,8.74,119.142,11.683 M108.351,6.042c0.33,0.49,0.697,1.023,1.104,1.594c0.41,0.575,0.859,1.27,1.35,2.085
			c-0.49-0.489-0.981-0.938-1.472-1.349c-0.491-0.406-0.981-0.773-1.472-1.104L108.351,6.042z M105.53,11.562
			c0.084-0.082,0.123-0.203,0.123-0.369c0.82,1.311,1.839,2.66,3.064,4.047c1.227,1.392,2.495,2.985,3.803,4.782
			c-1.308-1.307-2.533-2.655-3.68-4.046c-1.142-1.388-2.287-2.736-3.434-4.047C105.407,11.769,105.449,11.646,105.53,11.562
			 M104.917,12.911c1.311,1.31,2.575,2.659,3.801,4.046c1.227,1.392,2.495,2.821,3.803,4.293c0.819,0.819,1.594,1.594,2.329,2.33
			c0.736,0.735,1.515,1.514,2.33,2.329l1.718,1.963c0.82,0.98,1.594,1.962,2.33,2.943c0.735,0.981,1.434,1.963,2.085,2.942
			l-2.944-3.433c-2.287-2.288-4.943-4.618-7.971-6.99c-3.023-2.369-5.435-4.293-7.235-5.765c-0.49-0.49-0.981-0.57-1.472-0.246
			l-0.981-1.225L104.917,12.911z M101.728,17.57l1.717,1.227c0,0.33,0.043,0.533,0.123,0.612c0.084,0.086,0.123,0.207,0.123,0.369
			c-1.143-0.326-1.963-0.406-2.452-0.246c-0.161,0-0.327,0.084-0.491,0.246l-0.245-0.246L101.728,17.57z M99.521,21.003l1.472,1.472
			l0.735,1.228l-2.453-1.472l-0.244-0.246L99.521,21.003z M97.56,24.928c0,0.165,0.041,0.245,0.121,0.245
			c0.086,0,0.123,0.084,0.123,0.245l-0.244-0.245V24.928z M95.106,28.362c0.328-0.325,0.654-0.49,0.98-0.49l0.98-1.963l1.718,1.718
			c0.329,0.655,0.655,1.146,0.981,1.472c-0.326-0.162-0.572-0.203-0.736-0.123c-0.161,0.084-0.406,0.123-0.736,0.123
			c-0.816,0.329-1.061,0.9-0.734,1.717l0.489,0.981l-2.942-3.188V28.362z M93.144,33.757l0.735-2.452l9.812,9.075
			c0.82,0.98,1.514,1.962,2.084,2.943c0.576,0.98,1.023,1.882,1.35,2.697v0.246l-2.697-2.453l-2.207-1.961
			c-1.143-1.308-2.246-2.492-3.313-3.558c-1.061-1.062-2.084-1.92-3.064-2.575c-0.492,0-0.898,0.084-1.228,0.245H94.37l-1.227-1.717
			V33.757z M92.897,35.72l0.981,0.98c-0.161,0-0.245,0.166-0.245,0.49l-0.98-0.735L92.897,35.72z M91.181,41.607l1.473,0.735
			l1.962,2.453c-0.651-0.491-1.265-0.981-1.839-1.472c-0.571-0.49-1.184-0.897-1.84-1.227L91.181,41.607z M96.209,49.333
			c1.718,1.882,3.722,3.477,6.011,4.783c0.164,0,0.244,0.084,0.244,0.244v-0.244l0.245,0.244c1.312,0,1.802-0.405,1.472-1.226
			l-0.244-0.245v-0.244c-0.652-0.817-1.963-2.412-3.926-4.784c-1.962-2.369-3.759-4.617-5.396-6.744l2.452,2.697
			c1.963,2.782,3.844,5.07,5.642,6.868l0.735,0.981v-0.246c0.492,0.33,0.943,0.368,1.35,0.123c0.41-0.245,0.532-0.613,0.368-1.104
			l1.472,1.717l-1.227,2.207l-0.49-0.489l0.49,0.735l-0.735,1.717c-0.327,0-0.491,0.166-0.491,0.49l-2.207-1.961l1.963,1.961v0.246
			l-1.473,1.963c-2.123-2.289-4.208-4.619-6.255-6.99c-2.042-2.369-3.962-4.864-5.763-7.481
			C92.573,45.861,94.493,47.455,96.209,49.333 M88.729,47.494l1.226,1.472c0.819,1.311,1.717,2.452,2.698,3.434
			c-0.981-0.326-1.717-0.49-2.207-0.49H89.71L87.747,49.7L88.729,47.494z M86.276,52.399c0.328,0.33,0.654,0.655,0.98,0.98
			c0.329,0.33,0.656,0.656,0.981,0.98l-2.453-1.226L86.276,52.399z M82.351,60.248l2.209-2.943l1.717,2.452
			c-0.652-0.16-1.389-0.16-2.209,0c-0.815,0.33-1.061,0.9-0.735,1.717c0.331,0.981,1.067,2.127,2.208,3.434l-1.473-0.735
			l-2.207-2.698L82.351,60.248z M81.125,62.946c0,0.164,0.085,0.328,0.245,0.49h-0.49C80.88,63.274,80.965,63.11,81.125,62.946
			 M77.446,67.116h0.244c0.822-0.326,1.638-1.228,2.453-2.698c0,0.164,0.043,0.287,0.123,0.366c0.084,0.086,0.123,0.207,0.123,0.369
			c0.33,0.819,0.735,1.472,1.227,1.963H81.37c-0.65,0-1.141,0.164-1.471,0.49c-0.491,0.654-0.491,1.556,0,2.697l-2.698-2.697
			C77.366,67.444,77.446,67.28,77.446,67.116 M76.71,68.586c0.821,0.981,1.68,1.962,2.576,2.944c0.9,0.98,1.759,2.046,2.574,3.188
			c-1.961-1.472-4.004-2.453-6.131-2.943c0-0.49-0.16-0.735-0.49-0.735L76.71,68.586z M73.276,79.992
			c0.164-0.08,0.41-0.038,0.736,0.123l7.848,8.829c-1.797-1.307-3.471-2.655-5.027-4.046c-1.552-1.389-2.98-2.982-4.292-4.783
			C72.871,80.115,73.116,80.077,73.276,79.992 M67.146,86.736L67.881,86l-0.245-0.245V85.51c0.329-0.325,0.49-0.571,0.49-0.735
			l1.962,2.207l0.491,0.735c-0.491-0.161-1.227-0.245-2.208-0.245s-1.308,0.575-0.981,1.718c2.127,2.291,4.293,4.457,6.5,6.5
			c2.207,2.046,4.293,4.211,6.254,6.498c-1.797-1.632-3.514-3.311-5.149-5.027c-1.634-1.717-3.435-3.066-5.396-4.047
			c-0.492-0.816-1.021-1.51-1.596-2.084c-0.57-0.571-1.184-1.186-1.839-1.84h-0.245C66.574,88.208,66.983,87.392,67.146,86.736
			 M72.296,99.737c-2.779-2.289-4.66-4.006-5.641-5.151c0.164,0,0.287,0.042,0.367,0.122c0.084,0.085,0.207,0.123,0.367,0.123
			L72.296,99.737z M64.447,95.075c0.819,0.822,1.839,1.925,3.065,3.313c1.227,1.392,2.494,2.74,3.803,4.047
			c-0.817-0.651-1.717-1.307-2.698-1.963c-0.981-0.65-1.962-1.226-2.944-1.717c-0.326-0.325-0.65-0.651-0.98-0.981
			c-0.326-0.325-0.651-0.65-0.981-0.98L64.447,95.075z M61.258,100.717c1.472,1.471,3.151,2.943,5.028,4.415
			c1.882,1.471,3.802,3.108,5.766,4.905c0.328,0.33,0.611,0.735,0.857,1.227c0.245,0.49,0.531,0.9,0.859,1.227
			c-1.633-1.308-3.313-2.859-5.029-4.66c-1.717-1.798-3.557-3.189-5.518-4.17c-0.492-0.161-0.897-0.081-1.228,0.245l-1.472-1.962
			L61.258,100.717z M59.541,103.169l-0.245,0.736l4.17,4.905c-0.816-0.49-1.553-0.98-2.208-1.472
			c-0.651-0.49-1.387-0.896-2.206-1.226h0.244c0-0.161,0.084-0.246,0.245-0.246l-0.245-0.245c0.33-0.49,0.165-0.897-0.49-1.227
			L59.541,103.169z M56.843,111.018c0.33,0.491,0.656,0.943,0.982,1.35c0.329,0.41,0.654,0.857,0.98,1.349
			c-0.326-0.326-0.693-0.693-1.104-1.104c-0.406-0.406-0.773-0.774-1.104-1.104C56.599,111.348,56.683,111.183,56.843,111.018
			 M54.759,114.698c0.084-0.325,0.287-0.651,0.613-0.981l2.453,2.453h-0.982c-0.49,0.165-1.142,0.245-1.962,0.245
			c-0.325-0.161-0.489-0.283-0.489-0.368c0-0.08-0.08-0.203-0.246-0.368C54.476,115.353,54.679,115.028,54.759,114.698"/>
		<path fill="#FFFFFF" d="M99.685,139.477c-0.701-0.501-1.353-0.934-1.963-1.313h-5.57c-0.025,0.668,0.102,1.273,0.42,1.804
			c-0.525-0.659-0.986-1.251-1.407-1.804h-2.35l7.437,8.18c-1.633-1.306-3.228-2.575-4.783-3.801
			c-1.552-1.227-3.227-2.33-5.027-3.312l-0.926-1.067h-0.862l0.071,0.087l-0.26-0.087h-8.75c1.912,1.366,3.692,2.863,5.33,4.502
			c1.801,1.801,3.598,3.598,5.396,5.395c0.98,1.312,1.962,2.576,2.943,3.802c0.701,0.876,1.457,1.78,2.242,2.697h2.861
			c-0.107-0.122-0.219-0.245-0.321-0.367c-0.407-0.49-0.774-0.98-1.104-1.471c0.655,0,0.819-0.491,0.489-1.472h0.246l-0.735-0.491
			c-1.472-1.962-3.146-3.717-5.028-5.273c-1.878-1.552-3.557-3.392-5.027-5.518c0.98,0.49,1.961,0.98,2.942,1.471
			c0.981,0.491,1.963,1.065,2.944,1.717c1.801,2.127,3.556,4.212,5.272,6.254c1.37,1.634,2.773,3.364,4.195,5.15H99.8l-6.983-8.216
			c1.962,1.802,3.887,3.557,5.765,5.273c1.124,1.026,2.331,2.004,3.602,2.942h4.117c-0.636-1.563-1.483-3.038-2.568-4.414
			c-1.227-1.552-2.491-3.146-3.803-4.783l-4.414-5.886c2.783,1.801,5.726,4.212,8.83,7.235c2.869,2.795,5.664,5.405,8.392,7.848
			h3.481c-0.595-0.51-1.197-1.036-1.816-1.593c-1.633-1.473-3.35-3.104-5.15-4.906c-1.634-1.962-3.189-3.962-4.66-6.009
			c-0.947-1.314-1.848-2.606-2.728-3.888h-3.397L99.685,139.477z"/>
		<path fill="#FFFFFF" d="M136.229,140.582c1.146,1.881,2.373,3.721,3.68,5.518l-5.887-5.396c-0.16-0.161-0.406-0.245-0.736-0.245
			c-0.325-0.816-0.736-1.511-1.226-2.085c-0.059-0.067-0.116-0.142-0.174-0.209h-1.786l1.96,3.029v0.245l-0.246,0.245
			c0.166,0,0.246,0.085,0.246,0.246c0.165,0,0.245,0.084,0.245,0.245c1.146,1.636,2.373,3.272,3.679,4.905
			c1.311,1.636,2.538,3.353,3.679,5.15c-1.632-1.307-3.146-2.778-4.537-4.415c-1.387-1.632-2.82-3.188-4.292-4.66l-3.565-4.991
			h-22.518c1.903,2.86,3.93,5.67,6.094,8.426c2.086,2.656,4.206,5.313,6.344,7.97h4.011c-1.315-2.024-2.718-4.065-4.223-6.131
			c-2.208-3.023-3.964-6.089-5.273-9.197h0.245l3.434,4.659l-2.453-3.924l-0.49-0.735h0.736c1.472,1.311,3.027,2.904,4.659,4.782
			c1.637,1.882,3.273,3.721,4.906,5.52l0.491,0.735c1.145,1.312,2.168,2.495,3.064,3.557c0.213,0.252,0.425,0.496,0.634,0.734h3.34
			l-2.869-4.782c1.543,1.543,2.927,3.14,4.167,4.782h2.864c-1.444-2.24-2.89-4.327-4.333-6.254
			c-1.472-1.962-2.779-4.085-3.925-6.376c0.981,0.49,1.963,1.226,2.943,2.207c1.472,2.292,2.943,4.499,4.414,6.622
			c0.856,1.237,1.749,2.509,2.66,3.801h7.41c-0.167-0.357-0.335-0.686-0.504-0.979c-0.325-0.571-0.652-1.266-0.981-2.085
			l2.943,2.942l0.078,0.122h3.508l-3.586-3.31l-1.472-1.962l-8.196-11.124h-0.735C135.195,138.949,135.725,139.75,136.229,140.582
			 M109.005,139.6c-0.162-0.081-0.326-0.284-0.49-0.614h0.736c0,0.165,0.164,0.575,0.489,1.228
			C109.415,139.887,109.171,139.684,109.005,139.6 M122.495,145.854c-1.962-2.453-3.925-4.66-5.887-6.622h1.962l3.925,5.396V145.854
			z M122.74,144.137c-0.161,0-0.245,0.084-0.245,0.245l-3.188-5.15c0.819,0,1.881-0.161,3.188-0.491
			c0.164,0.165,0.245,0.33,0.245,0.491c0,0.329,0.084,0.655,0.245,0.981l1.472,3.433
			C123.806,143.321,123.231,143.485,122.74,144.137 M125.315,139.109c-0.245-0.081-0.529-0.203-0.858-0.368l-0.245-0.244h1.227
			l0.735,1.226C125.849,139.396,125.561,139.193,125.315,139.109"/>
		<path fill="#FFFFFF" d="M143.098,142.666c-1.143-1.307-2.207-2.533-3.189-3.679c-0.227-0.265-0.454-0.549-0.681-0.823h-1.063
			c1.743,2.541,3.588,5.145,5.546,7.813c2.078,2.834,4.252,5.7,6.477,8.583h3.947l-4.66-6.989l5.591,6.989h1.295
			c-1.259-1.596-2.527-3.16-3.82-4.659c-2.043-2.368-4.127-4.698-6.254-6.99c-0.491-0.98-0.938-1.92-1.349-2.82
			c-0.302-0.666-0.515-1.303-0.685-1.927h-2.791C141.652,139.361,142.194,140.858,143.098,142.666"/>
		<path fill="#FFFFFF" d="M77.242,142.052c2.372,1.717,4.132,3.642,5.274,5.765l-1.473-0.736l-9.157-8.917h-0.024l6.484,7.445
			c-1.799-1.143-3.312-2.245-4.539-3.312c-1.226-1.061-2.654-2.165-4.291-3.311l-0.731-0.823H61.97l0.434,0.578
			c1.801,2.291,3.599,4.537,5.396,6.744c1.802,2.208,3.435,4.623,4.906,7.235c-0.815-0.489-1.675-1.142-2.575-1.962
			c-0.896-0.815-1.756-1.632-2.576-2.453l-0.244-0.489l-3.68-3.926l-5.499-5.728h-3.37l2.491,2.785
			c-0.651,0.165-0.896,0.735-0.735,1.717l2.207,3.679c-0.324-0.326-0.57-0.491-0.736-0.491c-0.489-0.815-1.019-1.551-1.594-2.206
			c-0.57-0.651-1.104-1.308-1.594-1.963l-1.963-2.207l-1.219-1.313h-1.686l5.357,5.728c-1.632-1.142-3.188-2.33-4.659-3.556
			c-0.888-0.739-1.841-1.462-2.847-2.172h-4.143l8.707,6.219c1.471,1.801,2.984,3.642,4.536,5.519
			c1.31,1.586,2.655,3.134,4.021,4.658h1.642l-8.483-8.706c1.312,0.821,2.66,1.638,4.047,2.453c1.392,0.821,2.74,1.638,4.048,2.453
			c0.655,0,1.146-0.161,1.472-0.491c0.329-0.324,0.245-0.815-0.246-1.471c-0.49-0.652-0.98-1.227-1.471-1.717
			c-0.491-0.491-0.896-1.063-1.227-1.717c1.311,1.311,2.697,2.739,4.17,4.292c1.472,1.556,3.026,2.904,4.66,4.047l0.734,0.856h6.16
			c-0.012-0.041-0.014-0.078-0.027-0.12l-0.244-0.49l0.523,0.61h0.21l-0.979-1.102c-1.307-2.614-2.901-5.066-4.783-7.358
			c-1.877-2.288-3.717-4.575-5.519-6.867l2.453,1.472c2.452,2.452,4.905,4.905,7.358,7.357c2.104,2.104,4.082,4.274,5.945,6.498
			h1.68l-7.135-8.215c1.146,0.82,2.207,1.557,3.188,2.207c0.981,0.656,2.046,1.228,3.188,1.717l3.731,4.291h2.345l-3.378-3.555
			l0.735-0.98c-0.651-1.963-1.674-3.596-3.066-4.905c-1.387-1.308-2.9-2.614-4.537-3.924l-2.597-3.031h-2.661
			C74.082,139.523,75.543,140.821,77.242,142.052"/>
		<path fill="#FFFFFF" d="M190.926,141.685c0.651,1.636,1.552,3.353,2.697,5.149l-2.942-2.698l-3.982-5.973h-3.932l1.537,2.049
			v0.246c0,0.164-0.039,0.329-0.123,0.49c-0.081,0.165-0.039,0.41,0.123,0.736c-0.162,0-0.284-0.038-0.368-0.123
			c-0.081-0.08-0.203-0.122-0.368-0.122c-0.491-0.326-0.896-0.326-1.227,0c-0.816-1.144-1.595-2.208-2.329-3.189
			c-0.022-0.029-0.045-0.058-0.067-0.087h-4.804l3.275,4.992c-1.797-1.797-3.679-3.434-5.641-4.905l-0.044-0.087h-3.723l3.275,4.992
			c-1.141-1.143-2.246-2.207-3.311-3.188c-0.693-0.641-1.363-1.232-2.022-1.804h-7.607c0.175,0.356,0.348,0.712,0.555,1.068
			c0.575,0.98,1.104,1.962,1.595,2.943c-0.816-0.651-1.595-1.265-2.331-1.84c-0.735-0.571-1.51-1.02-2.33-1.349
			c-0.141-0.283-0.305-0.556-0.478-0.823h-1.794l0.064,0.087c-0.115-0.038-0.227-0.057-0.341-0.087h-2.059
			c-0.1,0.03-0.201,0.049-0.298,0.087h-0.245l-0.065-0.087h-1.97l1.299,1.559c0.165,0,0.245,0.084,0.245,0.245
			c1.146,1.802,2.415,3.642,3.801,5.519c1.393,1.882,2.906,3.722,4.538,5.519l0.491,0.981c-2.614-2.778-5.274-5.802-7.972-9.075
			c-1.494-1.81-2.896-3.387-4.216-4.747h-3.011c1.914,1.709,3.953,3.861,6.123,6.464c2.453,2.943,4.824,5.807,7.113,8.585
			l1.03,1.348h7.028c-1.496-1.942-3.072-3.788-4.748-5.518c-2.532-2.614-4.943-5.476-7.235-8.584
			c0.655,0.164,1.636,0.574,2.943,1.227l9.509,12.875h1.162l-6.746-9.933c1.311,1.312,2.536,2.575,3.679,3.802
			c1.146,1.227,2.127,2.249,2.943,3.066l0.735,1.226l0.491-0.735c0.655-0.326,0.899-0.736,0.736-1.227l0.244-0.245l-0.49-0.49
			c-1.143-1.633-2.207-3.189-3.188-4.66c-0.98-1.473-1.962-3.104-2.943-4.905c2.452,2.943,4.905,5.886,7.357,8.829
			c1.417,1.701,2.804,3.463,4.167,5.272h2.7l-5.641-8.461c1.472,1.637,2.905,3.273,4.293,4.905c1.095,1.289,2.111,2.472,3.053,3.556
			h3.303l-4.517-6.254l-1.227-2.697c1.638,1.962,3.354,3.924,5.151,5.887c1.154,1.257,2.307,2.277,3.459,3.064h5.613l-5.148-7.971
			l-0.98-1.962c1.311,0.981,2.617,2.453,3.925,4.415l3.679,5.151l0.245,0.245c0.053,0.054,0.129,0.085,0.201,0.121h11.201
			c-1.237-2.025-2.465-4.031-3.677-6.009c-2.125-3.46-4.291-6.924-6.489-10.388h-3.729
			C190.163,139.241,190.414,140.413,190.926,141.685"/>
		<path fill="#FFFFFF" d="M223.642,138.165h-10.032l4.296,5.727c-1.473-1.306-3.519-2.533-6.132-3.678l-1.536-2.049h-0.808
			c0.31,0.456,0.676,0.969,1.117,1.558l-1.962-0.736c-0.655-0.16-1.146-0.16-1.471,0l-0.57-0.821h-1.884l4.171,6.709
			c0.65,1.636,1.348,3.229,2.084,4.781c0.736,1.558,1.51,3.15,2.33,4.783c-0.33-0.161-0.533-0.326-0.613-0.49
			c-0.084-0.16-0.207-0.325-0.368-0.49c-0.165-0.161-0.245-0.406-0.245-0.736c-0.654-1.141-1.391-1.471-2.206-0.981h-0.246
			l-0.735-1.226c0.325,0,0.693-0.123,1.103-0.368c0.406-0.245,0.448-0.612,0.122-1.104c-0.654-1.308-1.759-3.312-3.311-6.009
			c-1.008-1.747-1.994-3.362-2.965-4.869h-3.572l4.943,7.689c-1.472-1.307-2.863-2.778-4.169-4.415
			c-0.944-1.176-1.977-2.266-3.087-3.274h-3.395c0.948,0.508,1.802,1.228,2.556,2.171c0.981,1.227,2.124,2.495,3.435,3.802
			l4.17,7.358v0.244c0,0.953,0.146,1.893,0.421,2.82h2.994l-0.717-1.103c0.679,0.137,1.421,0.514,2.215,1.103h0.258v0.197
			c0.075,0.06,0.148,0.107,0.224,0.172c0.652,1.636,1.473,3.273,2.453,4.905c0.981,1.637,1.878,3.272,2.698,4.904l-1.472-1.471
			l-3.903-6.006v28.196c0.013,0.076,0.03,0.146,0.044,0.223h2.308c-0.069-0.603-0.087-1.207-0.043-1.81
			c0.081-1.143,0.123-2.369,0.123-3.68l0.736,1.227c0.161,0.819,0.245,1.556,0.245,2.207v1.717c0.096,0.098,0.192,0.213,0.289,0.339
			h4.965l-0.839-1.32c-0.165-0.65-0.533-1.387-1.104-2.207c-0.573-0.815-1.104-1.717-1.594-2.697v-1.962
			c0.981,1.472,2.001,2.862,3.066,4.17c1.061,1.31,2.246,2.291,3.556,2.941v1.075h2.479c0.02-0.849,0.049-1.698,0.098-2.546
			c0.08-1.471,0.122-2.859,0.122-4.169l0.052-0.078v-37.189C224.113,140.362,223.883,139.181,223.642,138.165 M206.133,150.759
			h-0.491l-2.452-3.679c1.472,1.472,3.023,2.537,4.659,3.188l0.736,0.981C207.604,150.924,206.783,150.759,206.133,150.759
			 M211.528,167.928v-0.49c0,0.164,0.039,0.245,0.123,0.245c0.08,0,0.122,0.084,0.122,0.245H211.528z M214.962,171.239
			c-0.491-0.244-0.899-0.447-1.227-0.612l-2.207-3.68l-0.736-3.434l1.472,1.717l3.925,6.868
			C215.859,171.772,215.452,171.485,214.962,171.239 M217.414,175.042h0.491l0.491,0.735L217.414,175.042z M221.584,182.154
			c-0.655-0.325-1.187-0.773-1.594-1.349c-0.41-0.571-0.778-1.184-1.104-1.839h1.473l1.226,1.716V182.154z M222.075,171.853
			c0,0.819-0.042,1.513-0.123,2.084c-0.084,0.575-0.123,1.27-0.123,2.085c-0.164-0.161-0.245-0.326-0.245-0.49
			c-0.164-0.816-0.409-1.595-0.736-2.329c-0.328-0.736-0.654-1.512-0.98-2.331c-0.164-2.123-0.858-4.169-2.084-6.133
			c-1.228-1.961-2.415-3.924-3.558-5.886l4.905,6.132l2.944,4.66V171.853z M222.198,159.589c-0.085,0.491-0.123,1.064-0.123,1.717
			l-9.566-14.226l-2.208-5.15l2.453,1.226c1.633,2.452,3.189,4.905,4.66,7.358c1.472,2.453,3.105,4.905,4.906,7.358
			C222.32,158.527,222.278,159.099,222.198,159.589 M222.32,154.193l-6.868-9.319l3.925,3.433c0,0.491,0.245,0.981,0.736,1.472
			c0.326,0.33,0.65,0.491,0.98,0.491l0.981,1.471c0.161,0.491,0.245,1.065,0.245,1.718V154.193z"/>
		<path fill="#FFFFFF" d="M48.178,145.732c-1.634-1.717-3.351-3.473-5.151-5.274c-0.49-0.49-0.938-0.98-1.349-1.471
			c-0.228-0.274-0.438-0.549-0.642-0.823h-5.76l5.299,6.218l2.942,3.435c-1.308-0.981-2.698-2-4.17-3.066
			c-1.472-1.061-2.942-2-4.415-2.819l-3.322-3.767h-1.939l3.3,3.521c-0.161,0.165-0.245,0.489-0.245,0.98
			c-1.637-1.638-3.35-3.134-5.123-4.502h-9.255l1.623,1.804l6.378,6.377c-0.652-0.325-1.266-0.49-1.84-0.49h-1.594l-3.029-3.23
			c0.082,0.208,0.189,0.392,0.331,0.532c-0.981-0.816-1.962-1.716-2.944-2.698c-0.72-0.72-1.35-1.484-1.895-2.294H4.811
			c0.306,0.848,0.698,1.695,1.181,2.54l-2.539-2.54H1.253v28.476c0.027,0.268,0.044,0.52,0.078,0.799
			c-0.023,0-0.053,0.016-0.078,0.025v17.984c0.023,0.077,0.039,0.157,0.066,0.233h2.437c-0.021-0.135-0.05-0.25-0.095-0.339
			c-0.08-0.16-0.123-0.405-0.123-0.735l0.717,1.074h0.898l-1.861-2.791l0.492-0.49v-0.245c0.164-0.326,0.244-0.817,0.244-1.472
			l3.189,3.679H6.727c-0.325,0-0.735,0.245-1.226,0.736c0,0.165-0.039,0.286-0.123,0.366c-0.053,0.056-0.081,0.132-0.1,0.217h6.166
			c-0.554-0.239-1.144-0.512-1.773-0.829l-0.981-1.472l0.735,0.49c0,0.165,0.042,0.245,0.123,0.245c0.084,0,0.123,0.085,0.123,0.246
			l0.244-0.491v0.245c1.311,0,1.802-0.49,1.473-1.471c-0.816-1.308-1.675-2.656-2.576-4.047c-0.896-1.388-1.51-2.901-1.839-4.538
			c0.981,1.311,1.923,2.537,2.819,3.68c0.902,1.145,1.841,2.291,2.82,3.434c0.491,1.311,1.066,2.372,1.717,3.188
			c-0.15,0.531-0.301,0.964-0.453,1.319h2.632c0.103-0.471,0.192-0.992,0.274-1.565c0.191-0.318,0.342-0.653,0.473-0.997v-26.322
			l-1.699,0.34l-1.471-1.717l-0.245-0.245c-1.308-2.288-2.943-4.293-4.905-6.01s-3.516-3.717-4.66-6.009
			c1.801,0.491,3.311,1.392,4.537,2.698c1.227,1.311,2.576,2.537,4.047,3.679l4.668,5.027h1.424l-2.903-3.065
			c1.637-0.325,1.962-0.98,0.981-1.962c-1.307-1.471-2.613-2.981-3.925-4.537c-1.307-1.552-2.698-3.065-4.169-4.538
			c1.311,0.82,3.064,2.127,5.273,3.924c2.207,1.803,4.291,3.189,6.254,4.17l2.453,2.698l0.244,0.491l2.631,2.819h3.828
			c-0.73-1.077-1.57-2.102-2.535-3.065c-1.141-1.141-2.123-2.122-2.942-2.943v-0.244c0.165,0.165,0.411,0.244,0.735,0.244
			l5.785,6.009h0.078l-4.882-5.518c0.82,0.49,1.679,0.943,2.576,1.35c0.899,0.409,1.759,0.777,2.575,1.103l2.523,3.065h2.535
			l-2.115-2.819c0.819-0.326,0.655-0.817-0.49-1.472l-1.473-0.736l-4.414-4.905c0.819,0.655,1.556,1.227,2.207,1.717
			c0.655,0.49,1.227,0.981,1.717,1.472c0.656,0.33,1.188,0.288,1.594-0.122c0.41-0.406,0.453-0.859,0.123-1.35l-0.245-0.245
			c0-0.099-0.067-0.231-0.188-0.393c1.371,1.535,2.741,3.133,4.112,4.808c1.104,1.351,2.269,2.697,3.464,4.046h0.553
			c-0.689-0.832-1.346-1.654-1.932-2.451c-0.896-1.228-1.839-2.411-2.82-3.558l4.66,3.435l0.49,0.491v-0.246
			c0.165,0,0.33,0.084,0.491,0.246c0.164,0.329,0.575,0.819,1.226,1.471c-0.738,0-1.125,0.211-1.195,0.612h5.104
			c-0.277-0.034-0.525-0.073-0.719-0.121l-3.924-4.415l-0.491-0.736c1.146,0.82,2.292,1.594,3.435,2.33
			c1.145,0.736,2.371,1.514,3.678,2.33l0.613,0.612h6.693l-3.137-3.556C51.45,149.207,49.813,147.448,48.178,145.732 M3.538,160.816
			c0-1.473,0.084-2.614,0.246-3.435c0.164,0.33,0.328,0.533,0.49,0.613c0.164,0.084,0.329,0.207,0.49,0.368v2.944
			c0,0.98-0.081,1.881-0.245,2.696l-0.491-0.489C4.028,163.023,3.868,162.126,3.538,160.816 M3.784,156.892l0.49-2.208
			c0,0.165,0.043,0.244,0.122,0.244c0.084,0,0.123,0.085,0.123,0.246v2.698L3.784,156.892z M5.256,171.608
			c-0.327,0.49-0.652,1.064-0.981,1.717v-2.208c0.164,0,0.329-0.08,0.49-0.245L5.256,171.608z M5.501,179.702l-1.227-1.227v-3.68
			c0.164,0.656,0.451,1.35,0.858,2.085c0.409,0.736,0.942,1.68,1.594,2.821H5.501z M6.85,170.872
			c-0.407,0.165-0.774,0.33-1.104,0.49l-0.735-0.49l0.246-0.245l0.735-1.963l2.207,1.963C7.708,170.626,7.26,170.71,6.85,170.872
			 M6.973,172.833c0.819-0.651,1.801-0.815,2.942-0.49c0.49,0.329,1.065,0.981,1.718,1.963c0,0.654,0.042,1.268,0.122,1.839
			c0.084,0.574,0.123,1.188,0.123,1.84L6.973,172.833z M11.633,173.079l-0.491-0.735c0.165,0,0.288,0.042,0.368,0.122
			c0.084,0.084,0.207,0.123,0.368,0.123C11.717,172.753,11.633,172.917,11.633,173.079 M12.122,170.38H9.671l-3.189-3.679
			c0.491-1.471,0.736-2.943,0.736-4.414c1.311,1.801,2.372,3.354,3.188,4.659c0.82,1.311,1.392,2.293,1.717,2.944l-4.414-4.906
			L12.122,170.38z M7.218,158.609v-0.491l0.736,0.736c-0.162,0-0.285-0.039-0.369-0.123C7.505,158.651,7.382,158.609,7.218,158.609
			 M15.802,175.287c-0.161-0.326-0.284-0.613-0.368-0.859c-0.08-0.244-0.282-0.528-0.612-0.857v-0.245l-0.981-1.227
			c0.489-0.651,0.735-1.388,0.735-2.207l0.49,0.735v-0.246l-0.49-0.98c-0.326-1.308-1.02-2.613-2.084-3.924
			c-1.062-1.308-2-2.533-2.82-3.68c0.328,0.165,0.654,0.245,0.98,0.245h0.49l4.169,5.396L15.802,175.287z M9.18,155.665
			c0.819,0.981,2.127,1.312,3.924,0.981l0.736,0.98c-0.651,0.656-0.491,1.312,0.489,1.963c0.166,0,0.289,0.042,0.369,0.122
			c0.084,0.084,0.207,0.123,0.367,0.123v2.453l-0.736-0.246c-0.65-0.325-1.226-0.325-1.717,0c-0.49,0.33-0.404,0.82,0.246,1.473
			l2.452,1.471v1.962l-3.923-4.905c0.82-0.325,1.064-0.815,0.734-1.471c-0.65-1.307-1.471-2.492-2.451-3.557
			c-0.981-1.062-1.963-2.246-2.944-3.557l-0.489-0.98C7.382,153.622,8.362,154.684,9.18,155.665 M6.237,149.779
			c-0.652-0.491-1.554-0.736-2.699-0.736c-0.651,0-1.062,0.33-1.227,0.981v1.471c-0.16-1.306-0.244-2.533-0.244-3.679v-3.435
			c0.654,0.982,1.311,1.926,1.961,2.821C4.684,148.104,5.419,148.961,6.237,149.779 M2.312,140.704l0.246-1.472l1.717,1.717
			C3.948,140.788,3.292,140.704,2.312,140.704 M27.575,140.949l-0.981-0.981c0.655,0.329,1.188,0.697,1.595,1.104
			c0.409,0.41,0.858,0.778,1.348,1.103L27.575,140.949z"/>
		<rect x="1.101" y="136.674" fill="#FFFFFF" width="223.233" height="2.979"/>
		<rect x="14.991" y="154.281" fill="#FFFFFF" width="196.782" height="2.979"/>
		<rect x="0.821" y="184.341" fill="#FFFFFF" width="17.535" height="2.979"/>
		<rect x="209.058" y="184.192" fill="#FFFFFF" width="16.63" height="2.979"/>
		<rect x="222.709" y="136.674" fill="#FFFFFF" width="2.979" height="49.156"/>
		<rect x="15.379" y="154.56" fill="#FFFFFF" width="2.979" height="31.271"/>
		<rect x="209.057" y="154.56" fill="#FFFFFF" width="2.979" height="31.271"/>
	</g>
	<g>
		<path fill="#FFFFFF" d="M289.699,43.237h-19.988l-3.154,9.031h-12.85l18.361-49.572h15.24l18.361,49.572h-12.85L289.699,43.237z
			 M272.898,34.04h13.58l-6.773-19.723L272.898,34.04z"/>
		<path fill="#FFFFFF" d="M309.592,2.696h21.217c6.309,0,11.15,1.4,14.526,4.2c3.375,2.8,5.063,6.79,5.063,11.97
			c0,5.202-1.688,9.203-5.063,12.003c-3.376,2.8-8.218,4.2-14.526,4.2h-8.434v17.199h-12.783V2.696z M322.375,11.959v13.846h7.072
			c2.479,0,4.394-0.603,5.744-1.81c1.35-1.206,2.025-2.916,2.025-5.13c0-2.213-0.676-3.918-2.025-5.113
			c-1.351-1.195-3.266-1.793-5.744-1.793H322.375z"/>
		<path fill="#FFFFFF" d="M369.562,33.508v18.76h-12.783V2.696h19.523c6.529,0,11.316,1.096,14.36,3.287
			c3.043,2.191,4.565,5.656,4.565,10.393c0,3.276-0.792,5.966-2.374,8.068c-1.583,2.103-3.968,3.652-7.155,4.648
			c1.748,0.398,3.314,1.301,4.698,2.706c1.383,1.406,2.783,3.536,4.2,6.392l6.939,14.078h-13.613L381.88,39.95
			c-1.218-2.479-2.452-4.172-3.702-5.08c-1.251-0.907-2.917-1.361-4.997-1.361H369.562z M374.94,24.676
			c2.678,0,4.599-0.498,5.761-1.494s1.743-2.634,1.743-4.914c0-2.258-0.581-3.874-1.743-4.848c-1.162-0.974-3.083-1.461-5.761-1.461
			h-5.379v12.717H374.94z"/>
		<path fill="#FFFFFF" d="M406.487,2.696h34.498v9.662h-21.715v9.23h20.42v9.662h-20.42v11.355h22.445v9.662h-35.229V2.696z"/>
		<path fill="#FFFFFF" d="M450.286,2.696h14.277l18.029,34v-34h12.119v49.572h-14.277l-18.029-34v34h-12.119V2.696z"/>
		<path fill="#FFFFFF" d="M504.545,2.696h13.48c7.525,0,13.132,0.537,16.817,1.61c3.686,1.074,6.845,2.895,9.479,5.462
			c2.324,2.236,4.051,4.814,5.18,7.736s1.693,6.231,1.693,9.928c0,3.741-0.564,7.078-1.693,10.011
			c-1.129,2.933-2.855,5.518-5.18,7.753c-2.656,2.568-5.844,4.389-9.563,5.462c-3.719,1.074-9.297,1.61-16.734,1.61h-13.48V2.696z
			 M517.328,12.358v30.248h4.582c5.224,0,9.214-1.295,11.97-3.885s4.134-6.353,4.134-11.289c0-4.914-1.373-8.655-4.117-11.223
			c-2.745-2.567-6.74-3.852-11.986-3.852H517.328z"/>
		<path fill="#FFFFFF" d="M558.338,2.696h34.498v9.662h-21.715v9.23h20.42v9.662h-20.42v11.355h22.445v9.662h-35.229V2.696z"/>
		<path fill="#FFFFFF" d="M289.699,110.237h-19.988l-3.154,9.031h-12.85l18.361-49.572h15.24l18.361,49.572h-12.85L289.699,110.237z
			 M272.898,101.04h13.58l-6.773-19.723L272.898,101.04z"/>
		<path fill="#FFFFFF" d="M330.614,69.696h21.217c6.309,0,11.15,1.4,14.526,4.2c3.375,2.8,5.063,6.79,5.063,11.97
			c0,5.202-1.688,9.203-5.063,12.003c-3.376,2.801-8.218,4.2-14.526,4.2h-8.434v17.199h-12.783V69.696z M343.397,78.959v13.846
			h7.072c2.479,0,4.394-0.603,5.744-1.81c1.35-1.206,2.025-2.916,2.025-5.13c0-2.213-0.676-3.918-2.025-5.113
			c-1.351-1.195-3.266-1.793-5.744-1.793H343.397z"/>
		<path fill="#FFFFFF" d="M390.583,100.508v18.76H377.8V69.696h19.523c6.529,0,11.316,1.096,14.36,3.287
			c3.043,2.191,4.565,5.656,4.565,10.393c0,3.276-0.792,5.966-2.374,8.068c-1.583,2.103-3.968,3.652-7.155,4.648
			c1.748,0.398,3.314,1.301,4.698,2.706c1.383,1.406,2.783,3.536,4.2,6.392l6.939,14.078h-13.613l-6.043-12.318
			c-1.218-2.479-2.452-4.172-3.702-5.08c-1.251-0.907-2.917-1.361-4.997-1.361H390.583z M395.962,91.676
			c2.678,0,4.599-0.498,5.761-1.494s1.743-2.634,1.743-4.914c0-2.258-0.581-3.874-1.743-4.848c-1.162-0.974-3.083-1.461-5.761-1.461
			h-5.379v12.717H395.962z"/>
		<path fill="#FFFFFF" d="M450.153,68.799c7.969,0,14.211,2.28,18.727,6.84c4.516,4.56,6.773,10.857,6.773,18.893
			c0,8.014-2.258,14.3-6.773,18.859c-4.516,4.561-10.758,6.84-18.727,6.84c-7.947,0-14.184-2.279-18.71-6.84
			c-4.527-4.56-6.79-10.846-6.79-18.859c0-8.035,2.263-14.333,6.79-18.893C435.97,71.08,442.206,68.799,450.153,68.799z
			 M450.153,78.063c-3.896,0-6.918,1.439-9.064,4.316c-2.147,2.878-3.221,6.929-3.221,12.152c0,5.202,1.073,9.242,3.221,12.119
			c2.146,2.878,5.168,4.316,9.064,4.316c3.918,0,6.95-1.438,9.098-4.316c2.146-2.877,3.221-6.917,3.221-12.119
			c0-5.224-1.074-9.274-3.221-12.152C457.104,79.502,454.071,78.063,450.153,78.063z"/>
		<path fill="#FFFFFF" d="M527.223,115.583c-3.188,1.55-6.497,2.712-9.928,3.486c-3.432,0.774-6.973,1.162-10.625,1.162
			c-8.257,0-14.798-2.308-19.623-6.923c-4.826-4.615-7.238-10.874-7.238-18.776c0-7.991,2.457-14.277,7.371-18.859
			s11.643-6.873,20.188-6.873c3.298,0,6.458,0.31,9.479,0.93c3.021,0.62,5.871,1.539,8.55,2.756v10.26
			c-2.768-1.571-5.518-2.745-8.251-3.52c-2.734-0.774-5.474-1.162-8.218-1.162c-5.092,0-9.015,1.422-11.771,4.267
			c-2.756,2.845-4.134,6.912-4.134,12.202c0,5.246,1.328,9.297,3.984,12.152s6.43,4.283,11.322,4.283
			c1.328,0,2.562-0.083,3.702-0.249c1.14-0.166,2.163-0.426,3.071-0.78v-9.629h-7.803v-8.566h19.922V115.583z"/>
		<path fill="#FFFFFF" d="M548.609,100.508v18.76h-12.783V69.696h19.523c6.529,0,11.316,1.096,14.36,3.287
			c3.043,2.191,4.565,5.656,4.565,10.393c0,3.276-0.792,5.966-2.374,8.068c-1.583,2.103-3.968,3.652-7.155,4.648
			c1.748,0.398,3.314,1.301,4.698,2.706c1.383,1.406,2.783,3.536,4.2,6.392l6.939,14.078h-13.613l-6.043-12.318
			c-1.218-2.479-2.452-4.172-3.702-5.08c-1.251-0.907-2.917-1.361-4.997-1.361H548.609z M553.988,91.676
			c2.678,0,4.599-0.498,5.761-1.494s1.743-2.634,1.743-4.914c0-2.258-0.581-3.874-1.743-4.848c-1.162-0.974-3.083-1.461-5.761-1.461
			h-5.379v12.717H553.988z"/>
		<path fill="#FFFFFF" d="M615.617,110.237h-19.988l-3.154,9.031h-12.85l18.361-49.572h15.24l18.361,49.572h-12.85L615.617,110.237z
			 M598.816,101.04h13.58l-6.773-19.723L598.816,101.04z"/>
		<path fill="#FFFFFF" d="M635.511,69.696h16.27l11.289,26.529l11.355-26.529h16.236v49.572h-12.086V83.01l-11.422,26.729h-8.102
			L647.63,83.01v36.258h-12.119V69.696z"/>
		<path fill="#FFFFFF" d="M730.608,110.237H710.62l-3.154,9.031h-12.85l18.361-49.572h15.24l18.361,49.572h-12.85L730.608,110.237z
			 M713.808,101.04h13.58l-6.773-19.723L713.808,101.04z"/>
		<path fill="#FFFFFF" d="M763.285,100.508v18.76h-12.783V69.696h19.523c6.529,0,11.316,1.096,14.36,3.287
			c3.043,2.191,4.565,5.656,4.565,10.393c0,3.276-0.792,5.966-2.374,8.068c-1.583,2.103-3.968,3.652-7.155,4.648
			c1.748,0.398,3.314,1.301,4.698,2.706c1.383,1.406,2.783,3.536,4.2,6.392l6.939,14.078h-13.613l-6.043-12.318
			c-1.218-2.479-2.452-4.172-3.702-5.08c-1.251-0.907-2.917-1.361-4.997-1.361H763.285z M768.664,91.676
			c2.678,0,4.599-0.498,5.761-1.494s1.743-2.634,1.743-4.914c0-2.258-0.581-3.874-1.743-4.848c-1.162-0.974-3.083-1.461-5.761-1.461
			h-5.379v12.717H768.664z"/>
		<path fill="#FFFFFF" d="M259.617,136.696h34.498v9.662H272.4v9.23h20.42v9.662H272.4v11.355h22.445v9.662h-35.229V136.696z"/>
		<path fill="#FFFFFF" d="M303.416,136.696h14.277l18.029,34v-34h12.119v49.572h-14.277l-18.029-34v34h-12.119V136.696z"/>
		<path fill="#FFFFFF" d="M372.786,136.696h12.85l13.148,36.59l13.115-36.59h12.85l-18.361,49.572h-15.24L372.786,136.696z"/>
		<path fill="#FFFFFF" d="M454.138,177.237h-19.988l-3.154,9.031h-12.85l18.361-49.572h15.24l18.361,49.572h-12.85L454.138,177.237z
			 M437.337,168.04h13.58l-6.773-19.723L437.337,168.04z"/>
		<path fill="#FFFFFF" d="M474.031,136.696h12.783v39.91h22.445v9.662h-35.229V136.696z"/>
		<path fill="#FFFFFF" d="M514.709,136.696h34.498v9.662h-21.715v9.23h20.42v9.662h-20.42v11.355h22.445v9.662h-35.229V136.696z"/>
		<path fill="#FFFFFF" d="M558.508,136.696h14.277l18.029,34v-34h12.119v49.572h-14.277l-18.029-34v34h-12.119V136.696z"/>
		<path fill="#FFFFFF" d="M652.079,183.545c-2.347,1.218-4.793,2.137-7.338,2.756c-2.546,0.619-5.202,0.93-7.969,0.93
			c-8.257,0-14.798-2.308-19.623-6.923c-4.826-4.615-7.238-10.874-7.238-18.776c0-7.924,2.412-14.194,7.238-18.81
			c4.825-4.615,11.366-6.923,19.623-6.923c2.767,0,5.423,0.311,7.969,0.93c2.545,0.62,4.991,1.539,7.338,2.756v10.26
			c-2.369-1.615-4.704-2.8-7.006-3.553c-2.303-0.752-4.727-1.129-7.271-1.129c-4.561,0-8.146,1.461-10.758,4.383
			c-2.612,2.922-3.918,6.951-3.918,12.086c0,5.113,1.306,9.131,3.918,12.053c2.611,2.922,6.197,4.383,10.758,4.383
			c2.545,0,4.969-0.376,7.271-1.129c2.302-0.752,4.637-1.937,7.006-3.553V183.545z"/>
		<path fill="#FFFFFF" d="M660.019,136.696h12.783v49.572h-12.783V136.696z"/>
		<path fill="#FFFFFF" d="M712.75,177.237h-19.988l-3.154,9.031h-12.85l18.361-49.572h15.24l18.361,49.572h-12.85L712.75,177.237z
			 M695.949,168.04h13.58l-6.773-19.723L695.949,168.04z"/>
	</g>
</g>
</svg>
