<?xml version="1.0" encoding="utf-8"?>
<!-- Generator: Adobe Illustrator 16.0.0, SVG Export Plug-In . SVG Version: 6.00 Build 0)  -->
<!DOCTYPE svg PUBLIC "-//W3C//DTD SVG 1.1//EN" "http://www.w3.org/Graphics/SVG/1.1/DTD/svg11.dtd">
<svg version="1.1" xmlns="http://www.w3.org/2000/svg" xmlns:xlink="http://www.w3.org/1999/xlink" x="0px" y="0px" width="260px"
	 height="260px" viewBox="0 0 260 260" enable-background="new 0 0 260 260" xml:space="preserve">
<g id="Capa_1">
	<path fill-rule="evenodd" clip-rule="evenodd" fill="#E84725" d="M130,0.031C58.221,0.031,0.031,58.22,0.031,130
		c0,71.78,58.189,129.969,129.969,129.969S259.969,201.779,259.969,130C259.969,58.22,201.779,0.031,130,0.031z M176.945,82.488
		c0.86,0.275,6.286,4.07,6.286,4.07l-0.23,2.283l-6.184-3.428C176.817,85.414,176.746,83.363,176.945,82.488z M157.798,76.478
		c0.719,0.039,1.36,4.215,1.385,4.813h-6.642c-0.794-0.07-1.741-5.281-2.063-5.27C153.167,75.925,155.334,76.349,157.798,76.478z
		 M133.758,79.46c0,0,4.096,5.576,4.123,5.723c-1.923,0.979-5.268,3.436-5.268,3.436s-5.616-5.822-5.268-5.955
		C127.776,82.501,133.758,79.46,133.758,79.46z M111.083,96.177l6.64,5.027c0,0-3.689,5.537-3.892,5.967
		c-0.677-0.303-1.231-0.758-1.833-1.146c-1.521-0.979-3.699-3.047-5.494-3.434C107.107,101.634,111.083,96.177,111.083,96.177z
		 M94.686,122.632c0.219-0.396,7.739,3.229,8.381,3.549c-1.091,2.42-1.75,5.272-2.749,7.788c-0.861,0.061-1.57-0.424-2.29-0.688
		c-0.707-0.26-1.385-0.426-2.062-0.688c-0.658-0.252-1.402-0.66-2.061-0.916c-0.698-0.273-1.388-0.424-2.063-0.688
		C90.914,130.626,94.305,123.335,94.686,122.632z M93.183,163.086c-0.063,0.277-0.921,3.4-0.882,3.406
		c-3.357-0.383-6.717-0.766-10.077-1.145c0.297-3.432,1.768-6.732,2.611-10.047c0.854,0.078,9.712,1.82,9.757,1.57
		C94.218,158.957,93.657,161.021,93.183,163.086z M146.976,173.525c0.063-0.467-0.114-0.625-0.23-0.918
		c-0.083-0.211-0.129-0.396-0.229-0.688c-0.064-0.186-0.187-0.23-0.229-0.457c-0.066-0.352-0.157-0.4-0.23-0.688
		c-0.033-0.139,0.05-0.324,0-0.457c-0.031-0.09-0.215,0.004-0.228-0.23c-0.007-0.119-0.172-0.316-0.229-0.457
		c-0.054-0.131,0.054-0.328,0-0.459c-0.024-0.055-0.176-0.074-0.23-0.229c-0.166-0.475-0.321-1.096-0.459-1.602
		c-0.121-0.186-0.238-0.373-0.229-0.689c3.279,0.311,5.884,1.295,9.162,1.604c0.168,0.523,0.469,1.086,0.688,1.604
		c0.199,0.471,0.161,0.699,0.459,1.146c0.182,0.273,0.065,0.537,0.227,0.914c0.026,0.061,0.177,0.072,0.23,0.229
		c0.063,0.189,0.188,0.234,0.229,0.459c0.025,0.135-0.052,0.334,0,0.459c0.042,0.1,0.217-0.014,0.229,0.229
		c0.019,0.363,0.478,0.494,0.458,1.146C153.162,174.209,150.016,173.918,146.976,173.525z M145.371,144.664
		c0.903,0.576,2.462,1.412,3.667,2.064c0.318,0.178,0.878,5.602,0.878,5.6c-0.199,0.104-0.441,0.125-0.645,0.016
		c-2.012-1.072-6.555-3.135-6.555-3.135l-0.781-0.422c0,0-0.094-4.027-0.221-5.957C142.319,142.594,144.791,144.297,145.371,144.664
		z M143.31,129.552c0,0,0.618-4.002,1.637-5.246c0.004-0.008,0.009-0.014,0.015-0.02c0.15,0.021,0.545,0.088,0.641,0.225
		c0.474,0.688,4.695,4.5,4.581,5.031c-0.344,1.586-0.789,3.155-1.142,4.741C149.109,133.975,143.31,129.552,143.31,129.552z
		 M155.709,115.968c-0.479,0.793-1.404,1.672-1.404,1.672l-0.018,0.006c0,0-3.071-4.307-3.848-5.02
		c-0.011-0.012-0.021-0.018-0.029-0.025c-0.143-0.117-0.451-0.766-0.451-0.766s0.153-0.234,0.224-0.381
		c0.194-0.406,2.747-2.977,2.747-2.977s2.377,3.123,2.978,4.123c0.372,0.617,0.695,0.971,0.688,1.375
		C156.586,114.314,156.192,115.166,155.709,115.968z M167.563,104.751c-1.024,0.42-3.638,1.664-3.638,1.664l-2.293-5.037
		l4.518-1.318c0,0,1.357,4.045,1.459,4.676C167.594,104.74,167.579,104.748,167.563,104.751z M182.705,102.523
		c-1.25-0.354-3.004-0.203-4.579-0.23v-2.977c1.912-0.004,3.22,0.598,4.808,0.916C183.068,101.207,182.769,101.748,182.705,102.523z
		 M188.548,99.65c-0.096,0.141-0.192,0.271-0.282,0.389c0.09-0.113-7.362-3.412-7.86-3.574c-3.812-1.232-8.268-2.043-12.301-1.666
		c-36.926,3.469-31.091,62.59-22.929,84.108c0.1,0.26,0.878,2.914,0.92,2.906c-3.141,0.387-6.539,0.025-9.707,0.025h-30.137
		c-0.933,0-11.201-0.018-11.201,0c0.089-8.607,1.111-17.174,2.617-25.645c0.438-2.453,0.924-4.896,1.449-7.332
		c0.624-2.898,1.441-5.75,2.289-8.59c5.816-19.475,15.147-37.653,32.906-48.52c13.385-8.188,26.819-10.949,41.59-4.508
		c4.449,1.943,8.333,4.631,11.91,7.789c0.108,0.096,0.08,0.129,0.229,0.229c0.378,0.252,0.566,0.564,0.916,0.916
		c0.303,0.301,0.819,0.809,0.819,0.809S189.02,98.962,188.548,99.65z"/>
</g>
<g id="calco">
</g>
</svg>
