<?xml version="1.0" encoding="utf-8"?>

<!-- License Agreement at http://iconmonstr.com/license/ -->

<!DOCTYPE svg PUBLIC "-//W3C//DTD SVG 1.1//EN" "http://www.w3.org/Graphics/SVG/1.1/DTD/svg11.dtd">
<svg version="1.1" xmlns="http://www.w3.org/2000/svg" xmlns:xlink="http://www.w3.org/1999/xlink" x="0px" y="0px"
	 width="512px" height="512px" viewBox="0 0 512 512" style="enable-background:new 0 0 512 512;" xml:space="preserve">
<path fill="#fff" id="certificate-7" d="M221.667,187.333h-85.833v-17.167h85.833V187.333z M221.667,204.5h-85.833v17.166h85.833V204.5z
	 M221.667,238.833h-85.833V256h85.833V238.833z M187.333,273.166h-51.5v17.168h51.5V273.166z M370.886,205.548
	c-10.779-7.485-9.338-5.608-13.429-17.754c-1.693-5.062-6.588-8.508-12.104-8.508c-0.033,0-0.033,0-0.051,0
	c-13.277,0.059-10.98,0.763-21.709-6.765c-2.23-1.575-4.861-2.355-7.511-2.355c-2.648,0-5.28,0.78-7.511,2.355
	c-10.796,7.586-8.449,6.823-21.709,6.765c-0.018,0-0.018,0-0.051,0c-5.516,0-10.41,3.445-12.104,8.508
	c-4.091,12.188-2.683,10.302-13.412,17.754c-3.402,2.347-5.297,6.06-5.297,9.924c0,1.258,0.218,2.54,0.637,3.814
	c4.158,12.154,4.158,9.815,0,21.936c-0.419,1.249-0.637,2.532-0.637,3.814c0,3.839,1.895,7.577,5.297,9.924
	c10.729,7.452,9.355,5.575,13.412,17.737c1.693,5.08,6.588,8.5,12.104,8.5c0.033,0,0.033,0,0.051,0
	c13.277-0.051,10.98-0.755,21.709,6.756c2.23,1.576,4.862,2.381,7.511,2.381c2.649,0,5.28-0.805,7.511-2.381
	c10.729-7.511,8.416-6.807,21.709-6.756c0.018,0,0.018,0,0.051,0c5.516,0,10.41-3.42,12.104-8.5
	c4.091-12.154,2.649-10.276,13.429-17.737c3.386-2.347,5.28-6.085,5.28-9.924c0-1.282-0.201-2.565-0.637-3.814
	c-4.157-12.179-4.124-9.84,0-21.936c0.436-1.274,0.637-2.565,0.637-3.822C376.166,211.6,374.271,207.869,370.886,205.548z
	 M316.083,260.291c-16.597,0-30.042-13.453-30.042-30.041c0-16.605,13.445-30.059,30.042-30.059s30.042,13.453,30.042,30.059
	C346.125,246.838,332.68,260.291,316.083,260.291z M337.395,307.638c0.095-0.089,0.22-0.138,0.349-0.138H359v120.167l-42.548-25.733
	l-43.286,25.733V307.5h21.141c7.125,4.996,11.852,8.584,21.776,8.584C324.389,316.084,332.069,312.594,337.395,307.638z M50,84.333
	v291.833h188.833v-34.332h-154.5V118.666h343.333v223.168h-34.333v34.332H462V84.333H50z"/>
</svg>
